<svg width="6" height="10" viewBox="0 0 6 10" fill="none" xmlns="http://www.w3.org/2000/svg">
    <path d="M1.13233 0.197889L5.56946 4.63061C5.62213 4.68338 5.65935 4.74055 5.68112 4.80211C5.70323 4.86368 5.71429 4.92964 5.71429 5C5.71429 5.07036 5.70323 5.13632 5.68112 5.19789C5.65935 5.25945 5.62213 5.31662 5.56946 5.36939L1.13233 9.8153C1.00944 9.93843 0.855834 10 0.671502 10C0.48717 10 0.329172 9.93404 0.197506 9.80211C0.0658404 9.67018 7.63628e-06 9.51627 7.65165e-06 9.34037C7.66703e-06 9.16447 0.0658405 9.01055 0.197506 8.87863L4.06847 5L0.197507 1.12137C0.0746189 0.99824 0.0131748 0.846613 0.0131748 0.66649C0.0131748 0.486015 0.0790076 0.329815 0.210673 0.197888C0.342339 0.0659623 0.495949 -7.03837e-07 0.671503 -6.88489e-07C0.847057 -6.73142e-07 1.00067 0.0659624 1.13233 0.197889V0.197889Z" fill="#D9D9D9"/>
</svg>
