<svg width="14" height="15" viewBox="0 0 14 15" fill="none" xmlns="http://www.w3.org/2000/svg">
    <path d="M14 10.7866C13.9997 11.7699 13.6725 12.7236 13.0725 13.4898C12.4726 14.256 11.6359 14.7888 10.7009 15L10.2543 13.6238C10.6633 13.5546 11.0522 13.3931 11.3931 13.1509C11.7339 12.9087 12.0182 12.5919 12.2255 12.2232H10.5C10.1287 12.2232 9.7726 12.0717 9.51005 11.802C9.2475 11.5323 9.1 11.1665 9.1 10.7852V7.90912C9.1 7.52773 9.2475 7.16196 9.51005 6.89228C9.7726 6.6226 10.1287 6.4711 10.5 6.4711H12.5566C12.3858 5.08117 11.727 3.80304 10.704 2.87653C9.68095 1.95001 8.36391 1.4388 7 1.4388C5.63609 1.4388 4.31905 1.95001 3.296 2.87653C2.27296 3.80304 1.61422 5.08117 1.4434 6.4711H3.5C3.8713 6.4711 4.2274 6.6226 4.48995 6.89228C4.7525 7.16196 4.9 7.52773 4.9 7.90912V10.7852C4.9 11.1665 4.7525 11.5323 4.48995 11.802C4.2274 12.0717 3.8713 12.2232 3.5 12.2232H1.4C1.0287 12.2232 0.672601 12.0717 0.41005 11.802C0.1475 11.5323 0 11.1665 0 10.7852V7.19011C0 3.21901 3.1339 0 7 0C10.8661 0 14 3.21901 14 7.19011V10.7866Z" fill="#4B4B4B"/>
</svg>
