<svg width="14" height="17" viewBox="0 0 14 17" fill="none" xmlns="http://www.w3.org/2000/svg">
    <path d="M14 3.64286C14 5.20524 12.7789 6.47619 11.2778 6.47619C9.77667 6.47619 8.55556 5.20524 8.55556 3.64286C8.55556 2.08048 9.77667 0.809528 11.2778 0.809528C12.7789 0.809528 14 2.08048 14 3.64286ZM12.4444 7.92524C12.0556 8.03048 11.6667 8.09524 11.2778 8.09524C10.1439 8.0931 9.057 7.62332 8.2552 6.78881C7.45341 5.95429 7.00206 4.82305 7 3.64286C7 2.45286 7.45111 1.37619 8.16667 0.574766C8.02552 0.39468 7.84755 0.249637 7.64572 0.150207C7.44389 0.0507758 7.22329 -0.000537932 7 4.25217e-06C6.14444 4.25217e-06 5.44444 0.728575 5.44444 1.61905V1.85381C3.13444 2.56619 1.55556 4.77619 1.55556 7.28572V12.1429L0 13.7619V14.5714H14V13.7619L12.4444 12.1429V7.92524ZM7 17C7.86333 17 8.55556 16.2795 8.55556 15.381H5.44444C5.44444 15.8104 5.60833 16.2222 5.90006 16.5258C6.19178 16.8294 6.58744 17 7 17Z" fill="#4B4B4B"/>
</svg>
