<svg width="16" height="16" viewBox="0 0 16 16" fill="none" xmlns="http://www.w3.org/2000/svg">
    <path d="M7.99999 4.2666C7.57565 4.2666 7.16868 4.43517 6.86862 4.73523C6.56856 5.03529 6.39999 5.44226 6.39999 5.8666V6.39994H9.59999V5.8666C9.59999 5.44226 9.43142 5.03529 9.13137 4.73523C8.83131 4.43517 8.42434 4.2666 7.99999 4.2666Z" fill="#4B4B4B"/>
    <path fill-rule="evenodd" clip-rule="evenodd" d="M8 0C10.1217 0 12.1566 0.842855 13.6569 2.34315C15.1571 3.84344 16 5.87827 16 8C16 10.1217 15.1571 12.1566 13.6569 13.6569C12.1566 15.1571 10.1217 16 8 16C5.87827 16 3.84344 15.1571 2.34315 13.6569C0.842855 12.1566 0 10.1217 0 8C0 5.87827 0.842855 3.84344 2.34315 2.34315C3.84344 0.842855 5.87827 0 8 0V0ZM5.33333 5.86667V6.49067C5.02125 6.60101 4.75107 6.80542 4.56003 7.07574C4.36899 7.34607 4.26649 7.66899 4.26667 8V11.2C4.26667 11.6243 4.43524 12.0313 4.7353 12.3314C5.03535 12.6314 5.44232 12.8 5.86667 12.8H10.1333C10.5577 12.8 10.9646 12.6314 11.2647 12.3314C11.5648 12.0313 11.7333 11.6243 11.7333 11.2V8C11.7335 7.66899 11.631 7.34607 11.44 7.07574C11.2489 6.80542 10.9788 6.60101 10.6667 6.49067V5.86667C10.6667 5.15942 10.3857 4.48115 9.88562 3.98105C9.38552 3.48095 8.70724 3.2 8 3.2C7.29276 3.2 6.61448 3.48095 6.11438 3.98105C5.61429 4.48115 5.33333 5.15942 5.33333 5.86667V5.86667Z" fill="#4B4B4B"/>
</svg>
