<svg width="16" height="14" viewBox="0 0 16 14" fill="none" xmlns="http://www.w3.org/2000/svg">
    <path d="M14.9312 0.044348L4.8 3.49374V8.83335L5.3984 9.03702L4.4968 10.7564C4.39411 10.9518 4.3367 11.1661 4.32847 11.3846C4.32024 11.603 4.36137 11.8206 4.44908 12.0226C4.53679 12.2246 4.66903 12.4063 4.83682 12.5553C5.00462 12.7042 5.20405 12.8171 5.4216 12.8861L8.6888 13.9243C9.05428 14.0379 9.45031 14.0233 9.80545 13.883C10.1606 13.7427 10.4515 13.486 10.6256 13.1592L11.668 11.1713L14.9312 12.2827C15.0519 12.3238 15.1811 12.3366 15.3081 12.3201C15.435 12.3036 15.5559 12.2583 15.6607 12.1879C15.7654 12.1176 15.8509 12.0243 15.91 11.9159C15.969 11.8075 15.9999 11.6871 16 11.5649V0.762145C15.9999 0.639985 15.969 0.519636 15.91 0.411225C15.8509 0.302813 15.7654 0.20951 15.6607 0.139165C15.5559 0.0688199 15.435 0.0234904 15.3081 0.00699033C15.1811 -0.00950978 15.0519 0.00330205 14.9312 0.044348ZM9.1944 12.4773L5.928 11.4391L6.916 9.5542L10.1496 10.6557L9.1944 12.4773ZM1.6 8.83335H3.2V3.49374H1.6C0.7176 3.49374 0 4.17797 0 5.01934V7.30775C0 8.14912 0.7176 8.83335 1.6 8.83335Z" fill="#4B4B4B"/>
</svg>
