<svg width="20" height="20" viewBox="0 0 20 20" fill="none" xmlns="http://www.w3.org/2000/svg">
<path d="M10 0C8.02219 0 6.08879 0.58649 4.4443 1.6853C2.79981 2.78412 1.51809 4.3459 0.761209 6.17316C0.00433286 8.00043 -0.1937 10.0111 0.192152 11.9509C0.578004 13.8907 1.53041 15.6725 2.92894 17.0711C4.32746 18.4696 6.10929 19.422 8.0491 19.8078C9.98891 20.1937 11.9996 19.9957 13.8268 19.2388C15.6541 18.4819 17.2159 17.2002 18.3147 15.5557C19.4135 13.9112 20 11.9778 20 10C19.9975 7.34859 18.9432 4.80647 17.0684 2.93164C15.1935 1.05681 12.6514 0.00245161 10 0ZM10 17.7778C8.4617 17.7778 6.95795 17.3216 5.6789 16.467C4.39985 15.6123 3.40296 14.3976 2.81427 12.9764C2.22559 11.5552 2.07157 9.99137 2.37167 8.48263C2.67178 6.97389 3.41254 5.58802 4.50028 4.50028C5.58803 3.41254 6.97389 2.67178 8.48263 2.37167C9.99137 2.07156 11.5552 2.22559 12.9764 2.81427C14.3976 3.40295 15.6124 4.39985 16.467 5.6789C17.3216 6.95795 17.7778 8.4617 17.7778 10C17.7753 12.062 16.9551 14.0389 15.497 15.497C14.0389 16.9551 12.062 17.7753 10 17.7778ZM14.8148 10C14.8148 10.2947 14.6978 10.5773 14.4894 10.7857C14.281 10.994 13.9984 11.1111 13.7037 11.1111H11.1111V13.7037C11.1111 13.9984 10.994 14.281 10.7857 14.4894C10.5773 14.6977 10.2947 14.8148 10 14.8148C9.70532 14.8148 9.4227 14.6977 9.21433 14.4894C9.00595 14.281 8.88889 13.9984 8.88889 13.7037V11.1111H6.2963C6.00161 11.1111 5.719 10.994 5.51063 10.7857C5.30225 10.5773 5.18519 10.2947 5.18519 10C5.18519 9.70531 5.30225 9.4227 5.51063 9.21432C5.719 9.00595 6.00161 8.88889 6.2963 8.88889H8.88889V6.2963C8.88889 6.00161 9.00595 5.71899 9.21433 5.51062C9.4227 5.30225 9.70532 5.18518 10 5.18518C10.2947 5.18518 10.5773 5.30225 10.7857 5.51062C10.994 5.71899 11.1111 6.00161 11.1111 6.2963V8.88889H13.7037C13.9984 8.88889 14.281 9.00595 14.4894 9.21432C14.6978 9.4227 14.8148 9.70531 14.8148 10Z" fill="#4299FF"/>
</svg>
