<svg width="36" height="36" viewBox="0 0 36 36" fill="none" xmlns="http://www.w3.org/2000/svg">
<path d="M26.1 32.4H27.9V27.9H32.4V26.1H27.9V21.6H26.1V26.1H21.6V27.9H26.1V32.4ZM27 36C24.51 36 22.3878 35.1228 20.6334 33.3684C18.8778 31.6128 18 29.49 18 27C18 24.51 18.8778 22.3872 20.6334 20.6316C22.3878 18.8772 24.51 18 27 18C29.49 18 31.6128 18.8772 33.3684 20.6316C35.1228 22.3872 36 24.51 36 27C36 29.49 35.1228 31.6128 33.3684 33.3684C31.6128 35.1228 29.49 36 27 36ZM7.2 10.8H25.2V7.2H7.2V10.8ZM15.615 32.4H3.6C2.61 32.4 1.7622 32.0478 1.0566 31.3434C0.3522 30.6378 0 29.79 0 28.8V3.6C0 2.61 0.3522 1.7622 1.0566 1.0566C1.7622 0.3522 2.61 0 3.6 0H28.8C29.79 0 30.6378 0.3522 31.3434 1.0566C32.0478 1.7622 32.4 2.61 32.4 3.6V15.66C31.53 15.24 30.6528 14.925 29.7684 14.715C28.8828 14.505 27.96 14.4 27 14.4C26.67 14.4 26.3628 14.4072 26.0784 14.4216C25.7928 14.4372 25.5 14.475 25.2 14.535V14.4H7.2V18H18.225C17.685 18.51 17.1972 19.065 16.7616 19.665C16.3272 20.265 15.945 20.91 15.615 21.6H7.2V25.2H14.535C14.475 25.5 14.4372 25.7928 14.4216 26.0784C14.4072 26.3628 14.4 26.67 14.4 27C14.4 27.99 14.49 28.9128 14.67 29.7684C14.85 30.6228 15.165 31.5 15.615 32.4Z" fill="url(#paint0_linear_64_901)"/>
<defs>
<linearGradient id="paint0_linear_64_901" x1="0" y1="17.6" x2="36" y2="17.6" gradientUnits="userSpaceOnUse">
<stop stop-color="#5081FF"/>
<stop offset="0.0001" stop-color="#5A88FE"/>
<stop offset="1" stop-color="#6EA6FA"/>
</linearGradient>
</defs>
</svg>
