<svg width="17" height="15" viewBox="0 0 17 15" fill="none" xmlns="http://www.w3.org/2000/svg">
    <path d="M15.9375 6.42934L3.33625 6.42934L7.19313 1.75833C7.28242 1.65 7.34969 1.52499 7.39107 1.39045C7.43246 1.25591 7.44716 1.11446 7.43434 0.974194C7.40843 0.690905 7.27198 0.429595 7.055 0.247748C6.83802 0.0659018 6.55828 -0.0215845 6.27733 0.00453474C5.99638 0.030653 5.73722 0.168239 5.55687 0.387023L0.244374 6.81502C0.208632 6.86614 0.176671 6.91986 0.148749 6.97572C0.148749 7.02928 0.0956237 7.06142 0.0743739 7.11499C0.0262134 7.23783 0.00099821 7.36859 -1.25174e-06 7.50067C0.000998187 7.63275 0.0262133 7.76351 0.0743739 7.88635C0.0743739 7.93992 0.127497 7.97206 0.148749 8.02562C0.176671 8.08148 0.208632 8.13519 0.244374 8.18632L5.55687 14.6143C5.65677 14.7353 5.78187 14.8325 5.92327 14.8992C6.06467 14.9658 6.21891 15.0003 6.375 15C6.62325 15.0005 6.86384 14.9133 7.055 14.7536C7.16259 14.6637 7.25152 14.5532 7.31671 14.4286C7.38189 14.3039 7.42205 14.1675 7.43488 14.0272C7.44771 13.8869 7.43296 13.7454 7.39148 13.6108C7.34999 13.4763 7.28259 13.3513 7.19312 13.243L3.33625 8.572L15.9375 8.572C16.2193 8.572 16.4895 8.45913 16.6888 8.25822C16.8881 8.0573 17 7.78481 17 7.50067C17 7.21654 16.8881 6.94404 16.6888 6.74312C16.4895 6.54221 16.2193 6.42934 15.9375 6.42934Z" fill="#4B4B4B"/>
</svg>
