<svg width="20" height="20" viewBox="0 0 20 20" fill="none" xmlns="http://www.w3.org/2000/svg">
    <path fill-rule="evenodd" clip-rule="evenodd" d="M5 0C4.66848 0 4.35054 0.131696 4.11612 0.366116C3.8817 0.600537 3.75 0.918479 3.75 1.25V2.5H2.5C1.83696 2.5 1.20107 2.76339 0.732233 3.23223C0.263392 3.70107 0 4.33696 0 5V17.5C0 18.163 0.263392 18.7989 0.732233 19.2678C1.20107 19.7366 1.83696 20 2.5 20H17.5C18.163 20 18.7989 19.7366 19.2678 19.2678C19.7366 18.7989 20 18.163 20 17.5V5C20 4.33696 19.7366 3.70107 19.2678 3.23223C18.7989 2.76339 18.163 2.5 17.5 2.5H16.25V1.25C16.25 0.918479 16.1183 0.600537 15.8839 0.366116C15.6495 0.131696 15.3315 0 15 0C14.6685 0 14.3505 0.131696 14.1161 0.366116C13.8817 0.600537 13.75 0.918479 13.75 1.25V2.5H6.25V1.25C6.25 0.918479 6.1183 0.600537 5.88388 0.366116C5.64946 0.131696 5.33152 0 5 0ZM5 6.25C4.66848 6.25 4.35054 6.3817 4.11612 6.61612C3.8817 6.85054 3.75 7.16848 3.75 7.5C3.75 7.83152 3.8817 8.14946 4.11612 8.38388C4.35054 8.6183 4.66848 8.75 5 8.75H15C15.3315 8.75 15.6495 8.6183 15.8839 8.38388C16.1183 8.14946 16.25 7.83152 16.25 7.5C16.25 7.16848 16.1183 6.85054 15.8839 6.61612C15.6495 6.3817 15.3315 6.25 15 6.25H5Z" fill="currentColor"/>
</svg>
