<svg width="19" height="19" viewBox="0 0 19 19" fill="none" xmlns="http://www.w3.org/2000/svg">
<path fill-rule="evenodd" clip-rule="evenodd" d="M13.6727 18.7888C12.3527 18.7403 8.61183 18.2233 4.694 14.3063C0.777082 10.3885 0.260998 6.64851 0.211498 5.32759C0.138165 3.31459 1.68 1.35934 3.46108 0.595759C3.67556 0.503145 3.91043 0.467884 4.14265 0.493436C4.37487 0.518988 4.59646 0.604475 4.78566 0.741509C6.25233 1.81034 7.26433 3.42734 8.13333 4.69876C8.32453 4.97809 8.40628 5.31801 8.36301 5.65374C8.31973 5.98947 8.15445 6.29754 7.89866 6.51926L6.11025 7.84751C6.02384 7.9099 5.96303 8.00154 5.93909 8.10539C5.91514 8.20924 5.92971 8.31825 5.98008 8.41218C6.38525 9.14826 7.10575 10.2446 7.93075 11.0696C8.75667 11.8946 9.90433 12.6628 10.6917 13.1138C10.7905 13.1692 10.9067 13.1847 11.0165 13.1571C11.1263 13.1294 11.2213 13.0608 11.2821 12.9653L12.4462 11.1933C12.6603 10.909 12.976 10.7186 13.3273 10.6618C13.6786 10.6051 14.0383 10.6865 14.3309 10.889C15.6207 11.7818 17.1258 12.7764 18.2277 14.1872C18.3758 14.3778 18.4701 14.6046 18.5005 14.8441C18.531 15.0836 18.4966 15.3268 18.4009 15.5484C17.6337 17.3387 15.6922 18.8631 13.6727 18.7888Z" fill="#222222"/>
</svg>
