<svg width="36" height="36" viewBox="0 0 36 36" fill="none" xmlns="http://www.w3.org/2000/svg">
    <path d="M4 36C2.9 36 1.958 35.6087 1.174 34.826C0.391333 34.042 0 33.1 0 32V4C0 2.9 0.391333 1.958 1.174 1.174C1.958 0.391333 2.9 0 4 0H32C33.1 0 34.042 0.391333 34.826 1.174C35.6087 1.958 36 2.9 36 4V32C36 33.1 35.6087 34.042 34.826 34.826C34.042 35.6087 33.1 36 32 36H4ZM10 28C10.5667 28 11.042 27.808 11.426 27.424C11.8087 27.0413 12 26.5667 12 26C12 25.4333 11.8087 24.958 11.426 24.574C11.042 24.1913 10.5667 24 10 24C9.43333 24 8.958 24.1913 8.574 24.574C8.19133 24.958 8 25.4333 8 26C8 26.5667 8.19133 27.0413 8.574 27.424C8.958 27.808 9.43333 28 10 28ZM10 20C10.5667 20 11.042 19.808 11.426 19.424C11.8087 19.0413 12 18.5667 12 18C12 17.4333 11.8087 16.958 11.426 16.574C11.042 16.1913 10.5667 16 10 16C9.43333 16 8.958 16.1913 8.574 16.574C8.19133 16.958 8 17.4333 8 18C8 18.5667 8.19133 19.0413 8.574 19.424C8.958 19.808 9.43333 20 10 20ZM10 12C10.5667 12 11.042 11.808 11.426 11.424C11.8087 11.0413 12 10.5667 12 10C12 9.43333 11.8087 8.958 11.426 8.574C11.042 8.19133 10.5667 8 10 8C9.43333 8 8.958 8.19133 8.574 8.574C8.19133 8.958 8 9.43333 8 10C8 10.5667 8.19133 11.0413 8.574 11.424C8.958 11.808 9.43333 12 10 12ZM18 28H26C26.5667 28 27.0413 27.808 27.424 27.424C27.808 27.0413 28 26.5667 28 26C28 25.4333 27.808 24.958 27.424 24.574C27.0413 24.1913 26.5667 24 26 24H18C17.4333 24 16.9587 24.1913 16.576 24.574C16.192 24.958 16 25.4333 16 26C16 26.5667 16.192 27.0413 16.576 27.424C16.9587 27.808 17.4333 28 18 28ZM18 20H26C26.5667 20 27.0413 19.808 27.424 19.424C27.808 19.0413 28 18.5667 28 18C28 17.4333 27.808 16.958 27.424 16.574C27.0413 16.1913 26.5667 16 26 16H18C17.4333 16 16.9587 16.1913 16.576 16.574C16.192 16.958 16 17.4333 16 18C16 18.5667 16.192 19.0413 16.576 19.424C16.9587 19.808 17.4333 20 18 20ZM18 12H26C26.5667 12 27.0413 11.808 27.424 11.424C27.808 11.0413 28 10.5667 28 10C28 9.43333 27.808 8.958 27.424 8.574C27.0413 8.19133 26.5667 8 26 8H18C17.4333 8 16.9587 8.19133 16.576 8.574C16.192 8.958 16 9.43333 16 10C16 10.5667 16.192 11.0413 16.576 11.424C16.9587 11.808 17.4333 12 18 12Z" fill="url(#paint0_linear_64_762)"/>
    <defs>
        <linearGradient id="paint0_linear_64_762" x1="0" y1="17.6" x2="36" y2="17.6" gradientUnits="userSpaceOnUse">
            <stop stop-color="#5081FF"/>
            <stop offset="0.0001" stop-color="#5A88FE"/>
            <stop offset="1" stop-color="#6EA6FA"/>
        </linearGradient>
    </defs>
</svg>
