<svg width="11" height="11" viewBox="0 0 11 11" fill="none" xmlns="http://www.w3.org/2000/svg">
    <path d="M10.2969 0.176494C10.615 0.355873 10.8493 0.655117 10.9483 1.00842C11.0473 1.36173 11.0029 1.74016 10.8249 2.06051L6.30306 10.1907C6.18854 10.3966 6.0297 10.5742 5.83819 10.7103C5.64667 10.8465 5.42732 10.9377 5.19623 10.9775C4.96513 11.0172 4.72814 11.0043 4.50261 10.9398C4.27709 10.8753 4.06875 10.7609 3.89287 10.6048L0.46596 7.5654C0.19235 7.32264 0.0257234 6.98039 0.00273666 6.61394C-0.0202501 6.24749 0.102286 5.88686 0.343388 5.61137C0.58449 5.33589 0.924408 5.16812 1.28836 5.14497C1.65232 5.12183 2.0105 5.24521 2.28411 5.48796L4.61612 7.55669L8.42529 0.708115C8.5135 0.549471 8.63189 0.409876 8.77369 0.2973C8.91549 0.184725 9.07792 0.101375 9.25172 0.0520084C9.42551 0.0026422 9.60726 -0.0117728 9.78659 0.00958661C9.96592 0.030946 10.1393 0.0876614 10.2969 0.176494Z" fill="#5191F2"/>
</svg>
