<svg width="8" height="8" viewBox="0 0 8 8" fill="none" xmlns="http://www.w3.org/2000/svg">
    <path d="M4 0C3.20888 0 2.43552 0.234596 1.77772 0.674121C1.11992 1.11365 0.607234 1.73836 0.304484 2.46927C0.00173312 3.20017 -0.0774802 4.00444 0.0768607 4.78036C0.231201 5.55628 0.612165 6.26902 1.17157 6.82843C1.73098 7.38784 2.44372 7.7688 3.21964 7.92314C3.99556 8.07748 4.79983 7.99827 5.53073 7.69552C6.26164 7.39277 6.88635 6.88008 7.32588 6.22228C7.7654 5.56448 8 4.79112 8 4C7.99902 2.93943 7.57728 1.92259 6.82734 1.17266C6.07741 0.422723 5.06057 0.000980643 4 0ZM6.51852 4C6.51852 4.11787 6.47169 4.23092 6.38834 4.31427C6.30499 4.39762 6.19195 4.44444 6.07407 4.44444H4C3.88213 4.44444 3.76908 4.39762 3.68573 4.31427C3.60238 4.23092 3.55556 4.11787 3.55556 4V1.92593C3.55556 1.80805 3.60238 1.69501 3.68573 1.61166C3.76908 1.52831 3.88213 1.48148 4 1.48148C4.11788 1.48148 4.23092 1.52831 4.31427 1.61166C4.39762 1.69501 4.44445 1.80805 4.44445 1.92593C4.44445 2.82595 5.17406 3.55555 6.07407 3.55555C6.19195 3.55555 6.30499 3.60238 6.38834 3.68573C6.47169 3.76908 6.51852 3.88213 6.51852 4Z" fill="#BFBFBF"/>
</svg>
