<svg width="15" height="15" viewBox="0 0 8 8" fill="none" xmlns="http://www.w3.org/2000/svg">
    <path d="M0.167162 0.17445C0.274229 0.0673241 0.419422 0.00714382 0.570814 0.00714382C0.722206 0.00714382 0.8674 0.0673241 0.974466 0.17445L3.99643 3.19902L7.0184 0.17445C7.07106 0.119873 7.13406 0.0763404 7.20372 0.0463924C7.27338 0.0164444 7.34829 0.000680899 7.4241 2.15753e-05C7.49991 -0.000637748 7.57509 0.0138204 7.64526 0.0425523C7.71542 0.0712843 7.77917 0.113715 7.83278 0.167368C7.88638 0.22102 7.92878 0.284822 7.95748 0.355048C7.98619 0.425275 8.00064 0.50052 7.99998 0.576394C7.99932 0.652268 7.98357 0.727251 7.95365 0.796967C7.92373 0.866684 7.88023 0.929738 7.8257 0.98245L4.80373 4.00702L7.8257 7.03159C7.9297 7.13937 7.98725 7.28371 7.98595 7.43354C7.98465 7.58336 7.9246 7.72669 7.81874 7.83263C7.71289 7.93858 7.56969 7.99868 7.41999 7.99998C7.2703 8.00128 7.12608 7.94368 7.0184 7.83959L3.99643 4.81502L0.974466 7.83959C0.866786 7.94368 0.722566 8.00128 0.572869 7.99998C0.423171 7.99868 0.279973 7.93858 0.174117 7.83263C0.068261 7.72669 0.0082163 7.58336 0.00691546 7.43354C0.00561463 7.28371 0.0631618 7.13937 0.167162 7.03159L3.18913 4.00702L0.167162 0.98245C0.0601284 0.875292 0 0.729973 0 0.57845C0 0.426928 0.0601284 0.281609 0.167162 0.17445Z" fill="#4B4B4B"/>
</svg>
