<svg width="20" height="20" viewBox="0 0 20 20" fill="none" xmlns="http://www.w3.org/2000/svg">
<path d="M12.25 15.75C12.45 15.75 12.625 15.675 12.775 15.525C12.925 15.375 13 15.2 13 15C13 14.8 12.925 14.625 12.775 14.475C12.625 14.325 12.45 14.25 12.25 14.25C12.05 14.25 11.875 14.325 11.725 14.475C11.575 14.625 11.5 14.8 11.5 15C11.5 15.2 11.575 15.375 11.725 15.525C11.875 15.675 12.05 15.75 12.25 15.75ZM15 15.75C15.2 15.75 15.375 15.675 15.525 15.525C15.675 15.375 15.75 15.2 15.75 15C15.75 14.8 15.675 14.625 15.525 14.475C15.375 14.325 15.2 14.25 15 14.25C14.8 14.25 14.625 14.325 14.475 14.475C14.325 14.625 14.25 14.8 14.25 15C14.25 15.2 14.325 15.375 14.475 15.525C14.625 15.675 14.8 15.75 15 15.75ZM17.75 15.75C17.95 15.75 18.125 15.675 18.275 15.525C18.425 15.375 18.5 15.2 18.5 15C18.5 14.8 18.425 14.625 18.275 14.475C18.125 14.325 17.95 14.25 17.75 14.25C17.55 14.25 17.375 14.325 17.225 14.475C17.075 14.625 17 14.8 17 15C17 15.2 17.075 15.375 17.225 15.525C17.375 15.675 17.55 15.75 17.75 15.75ZM15 20C13.6167 20 12.4373 19.5123 11.462 18.537C10.4867 17.5617 9.99934 16.3827 10 15C10 13.6167 10.4877 12.4373 11.463 11.462C12.4383 10.4867 13.6173 9.99934 15 10C16.3833 10 17.5627 10.4877 18.538 11.463C19.5133 12.4383 20.0007 13.6173 20 15C20 16.3833 19.5123 17.5627 18.537 18.538C17.5617 19.5133 16.3827 20.0007 15 20ZM4 6H14V4H4V6ZM8.675 18H2C1.45 18 0.979002 17.804 0.587002 17.412C0.195002 17.02 -0.000664969 16.5493 1.69779e-06 16V2C1.69779e-06 1.45 0.196002 0.979002 0.588002 0.587002C0.980002 0.195002 1.45067 -0.000664969 2 1.69779e-06H16C16.55 1.69779e-06 17.021 0.196002 17.413 0.588002C17.805 0.980002 18.0007 1.45067 18 2V8.7C17.5167 8.46667 17.029 8.29167 16.537 8.175C16.045 8.05834 15.5327 8 15 8C14.8167 8 14.6457 8.004 14.487 8.012C14.3283 8.02 14.166 8.041 14 8.075V8H4V10H10.125C9.825 10.2833 9.554 10.5917 9.312 10.925C9.07 11.2583 8.85767 11.6167 8.675 12H4V14H8.075C8.04167 14.1667 8.02067 14.3293 8.012 14.488C8.00333 14.6467 7.99934 14.8173 8 15C8 15.55 8.05 16.0627 8.15 16.538C8.25 17.0133 8.425 17.5007 8.675 18Z" fill="currentColor"/>
</svg>
