<svg width="10" height="6" viewBox="0 0 10 6" fill="none" xmlns="http://www.w3.org/2000/svg">
    <path d="M9.80211 1.13227L5.36939 5.5694C5.31662 5.62207 5.25945 5.65928 5.19789 5.68105C5.13632 5.70317 5.07036 5.71423 5 5.71423C4.92964 5.71423 4.86368 5.70317 4.80211 5.68105C4.74055 5.65928 4.68338 5.62207 4.63061 5.5694L0.184696 1.13227C0.0615653 1.00938 -2.1237e-07 0.855773 -2.20427e-07 0.671441C-2.28485e-07 0.487109 0.0659628 0.329111 0.197889 0.197445C0.329815 0.0657792 0.483729 -5.34269e-05 0.65963 -5.34346e-05C0.835532 -5.34423e-05 0.989446 0.0657792 1.12137 0.197445L5 4.06841L8.87863 0.197445C9.00176 0.0745569 9.15339 0.0131126 9.33351 0.0131126C9.51398 0.0131126 9.67018 0.0789452 9.80211 0.210611C9.93404 0.342277 10 0.495886 10 0.671441C10 0.846994 9.93404 1.0006 9.80211 1.13227Z" fill="#D9E0FF"/>
</svg>
