<svg width="47" height="48" viewBox="0 0 47 48" fill="none" xmlns="http://www.w3.org/2000/svg">
<ellipse cx="23.5" cy="24" rx="23.5" ry="24" fill="#63A1FF"/>
<path d="M14.3875 17.5714H12.3625C11.8014 17.5714 11.35 18.0013 11.35 18.5357V22.7143H10.3375C10.1519 22.7143 10 22.8589 10 23.0357V24.9643C10 25.1411 10.1519 25.2857 10.3375 25.2857H11.35V29.4643C11.35 29.9987 11.8014 30.4286 12.3625 30.4286H14.3875C14.9486 30.4286 15.4 29.9987 15.4 29.4643V18.5357C15.4 18.0013 14.9486 17.5714 14.3875 17.5714ZM36.6625 22.7143H35.65V18.5357C35.65 18.0013 35.1986 17.5714 34.6375 17.5714H32.6125C32.0514 17.5714 31.6 18.0013 31.6 18.5357V29.4643C31.6 29.9987 32.0514 30.4286 32.6125 30.4286H34.6375C35.1986 30.4286 35.65 29.9987 35.65 29.4643V25.2857H36.6625C36.8481 25.2857 37 25.1411 37 24.9643V23.0357C37 22.8589 36.8481 22.7143 36.6625 22.7143ZM29.2375 15H27.2125C26.6514 15 26.2 15.4299 26.2 15.9643V22.7143H20.8V15.9643C20.8 15.4299 20.3486 15 19.7875 15H17.7625C17.2014 15 16.75 15.4299 16.75 15.9643V32.0357C16.75 32.5701 17.2014 33 17.7625 33H19.7875C20.3486 33 20.8 32.5701 20.8 32.0357V25.2857H26.2V32.0357C26.2 32.5701 26.6514 33 27.2125 33H29.2375C29.7986 33 30.25 32.5701 30.25 32.0357V15.9643C30.25 15.4299 29.7986 15 29.2375 15Z" fill="#FCFCFC"/>
</svg>
