<svg width="19" height="15" viewBox="0 0 19 15" fill="none" xmlns="http://www.w3.org/2000/svg">
<path d="M16.833 0.166992H2.16634C1.15801 0.166992 0.342174 0.991992 0.342174 2.00033L0.333008 13.0003C0.333008 14.0087 1.15801 14.8337 2.16634 14.8337H16.833C17.8413 14.8337 18.6663 14.0087 18.6663 13.0003V2.00033C18.6663 0.991992 17.8413 0.166992 16.833 0.166992ZM16.4663 4.06283L9.98551 8.11449C9.69217 8.29782 9.30717 8.29782 9.01384 8.11449L2.53301 4.06283C2.44109 4.01123 2.3606 3.94151 2.29641 3.85791C2.23221 3.7743 2.18565 3.67854 2.15954 3.57642C2.13342 3.47429 2.1283 3.36793 2.14448 3.26377C2.16067 3.15961 2.19782 3.05982 2.25368 2.97043C2.30955 2.88105 2.38297 2.80393 2.46951 2.74374C2.55604 2.68355 2.65389 2.64154 2.75713 2.62027C2.86037 2.59899 2.96685 2.59888 3.07013 2.61994C3.17342 2.64101 3.27135 2.68281 3.35801 2.74283L9.49967 6.58366L15.6413 2.74283C15.728 2.68281 15.8259 2.64101 15.9292 2.61994C16.0325 2.59888 16.139 2.59899 16.2422 2.62027C16.3455 2.64154 16.4433 2.68355 16.5298 2.74374C16.6164 2.80393 16.6898 2.88105 16.7457 2.97043C16.8015 3.05982 16.8387 3.15961 16.8549 3.26377C16.871 3.36793 16.8659 3.47429 16.8398 3.57642C16.8137 3.67854 16.7671 3.7743 16.7029 3.85791C16.6387 3.94151 16.5583 4.01123 16.4663 4.06283Z" fill="#FF6263"/>
</svg>
