<svg width="38" height="38" viewBox="0 0 38 38" fill="none" xmlns="http://www.w3.org/2000/svg">
    <rect opacity="0.2" width="37.8" height="37.8" rx="18" fill="url(#paint0_linear_0_1)"/>
    <path d="M25.1524 8.1869C25.1839 8.33967 25.1996 8.49875 25.1996 8.66255V29.1376C25.1996 29.7641 24.9507 30.365 24.5076 30.8081C24.0646 31.2511 23.4637 31.5 22.8371 31.5H14.9621C14.3355 31.5 13.7346 31.2511 13.2916 30.8081C12.8485 30.365 12.5996 29.7641 12.5996 29.1376V8.66255C12.5996 8.03598 12.8485 7.43506 13.2916 6.99201C13.7346 6.54895 14.3355 6.30005 14.9621 6.30005H22.8371C23.3813 6.29979 23.9089 6.48741 24.3307 6.83119C24.7526 7.17498 25.0428 7.65386 25.1524 8.1869ZM14.1746 25.9875V27.5625H16.5371C16.746 27.5625 16.9463 27.4796 17.094 27.3319C17.2416 27.1842 17.3246 26.9839 17.3246 26.775C17.3246 26.5662 17.2416 26.3659 17.094 26.2182C16.9463 26.0705 16.746 25.9875 16.5371 25.9875H14.1746ZM14.1746 10.2375V11.8125H16.5371C16.746 11.8125 16.9463 11.7296 17.094 11.5819C17.2416 11.4342 17.3246 11.2339 17.3246 11.025C17.3246 10.8162 17.2416 10.6159 17.094 10.4682C16.9463 10.3205 16.746 10.2375 16.5371 10.2375H14.1746ZM14.1746 14.175V15.75H18.1121C18.321 15.75 18.5213 15.6671 18.669 15.5194C18.8166 15.3717 18.8996 15.1714 18.8996 14.9625C18.8996 14.7537 18.8166 14.5534 18.669 14.4057C18.5213 14.258 18.321 14.175 18.1121 14.175H14.1746ZM14.1746 18.1125V19.6875H16.5371C16.746 19.6875 16.9463 19.6046 17.094 19.4569C17.2416 19.3092 17.3246 19.1089 17.3246 18.9C17.3246 18.6912 17.2416 18.4909 17.094 18.3432C16.9463 18.1955 16.746 18.1125 16.5371 18.1125H14.1746ZM14.1746 22.0563V23.6313H18.1121C18.321 23.6313 18.5213 23.5484 18.669 23.4007C18.8166 23.253 18.8996 23.0527 18.8996 22.8438C18.8996 22.635 18.8166 22.4347 18.669 22.287C18.5213 22.1393 18.321 22.0563 18.1121 22.0563H14.1746Z" fill="url(#paint1_linear_0_1)"/>
    <defs>
        <linearGradient id="paint0_linear_0_1" x1="0" y1="18.48" x2="37.8" y2="18.48" gradientUnits="userSpaceOnUse">
            <stop stop-color="#5081FF"/>
            <stop offset="0.0001" stop-color="#5A88FE"/>
            <stop offset="1" stop-color="#6EA6FA"/>
        </linearGradient>
        <linearGradient id="paint1_linear_0_1" x1="12.5996" y1="18.6201" x2="25.1996" y2="18.6201" gradientUnits="userSpaceOnUse">
            <stop stop-color="#5081FF"/>
            <stop offset="0.0001" stop-color="#5A88FE"/>
            <stop offset="1" stop-color="#6EA6FA"/>
        </linearGradient>
    </defs>
</svg>
