<svg width="16" height="18" viewBox="0 0 16 18" xmlns="http://www.w3.org/2000/svg">
    <path d="M2 18C1.45 18 0.979333 17.7987 0.588 17.3962C0.196 16.993 0 16.5086 0 15.9429V6.68571C0 6.36 0.0709998 6.05143 0.213 5.76C0.354333 5.46857 0.55 5.22857 0.8 5.04L6.8 0.411429C6.98333 0.274286 7.175 0.171428 7.375 0.102857C7.575 0.0342856 7.78333 0 8 0C8.21667 0 8.425 0.0342856 8.625 0.102857C8.825 0.171428 9.01667 0.274286 9.2 0.411429L15.2 5.04C15.45 5.22857 15.646 5.46857 15.788 5.76C15.9293 6.05143 16 6.36 16 6.68571V15.9429C16 16.5086 15.8043 16.993 15.413 17.3962C15.021 17.7987 14.55 18 14 18H10V10.8H6V18H2Z" fill="currentColor"/>
</svg>
