<svg width="24" height="23" viewBox="0 0 24 23" fill="none" xmlns="http://www.w3.org/2000/svg">
<path d="M19.9954 9.98464C19.9954 10.1527 19.9292 10.3139 19.8114 10.4329C19.6935 10.5519 19.5336 10.6191 19.3666 10.6198H17.6109V11.7512H19.3666C19.5337 11.7512 19.6939 11.818 19.8121 11.9369C19.9302 12.0557 19.9966 12.217 19.9966 12.3851C19.9966 12.5532 19.9302 12.7145 19.8121 12.8334C19.6939 12.9523 19.5337 13.019 19.3666 13.019H16.9796C16.8133 13.0178 16.6541 12.9505 16.5368 12.8317C16.4195 12.713 16.3535 12.5525 16.3532 12.3851V7.58418C16.3532 7.23763 16.6352 6.95025 16.9832 6.95025H19.369C19.5293 6.96052 19.6798 7.03193 19.7896 7.14993C19.8994 7.26793 19.9604 7.42364 19.9601 7.58531C19.9598 7.74699 19.8982 7.90246 19.788 8.02004C19.6777 8.13762 19.527 8.20845 19.3666 8.2181H17.6109V9.35072H19.3666C19.7146 9.35072 19.9954 9.63568 19.9954 9.98464ZM15.0788 12.9852C15.0144 13.0061 14.9472 13.0167 14.8795 13.0166C14.7807 13.0187 14.6827 12.9968 14.594 12.9529C14.5052 12.909 14.4283 12.8443 14.3695 12.7643L11.9262 9.42679V12.3851C11.9142 12.5445 11.8428 12.6934 11.7263 12.8021C11.6098 12.9108 11.4568 12.9712 11.298 12.9712C11.1391 12.9712 10.9861 12.9108 10.8696 12.8021C10.7531 12.6934 10.6817 12.5445 10.6697 12.3851V7.58418C10.6694 7.41722 10.7349 7.25695 10.8519 7.13856C10.9689 7.02016 11.1278 6.9533 11.2938 6.95267C11.3899 6.95574 11.4841 6.98031 11.5697 7.02459C11.6552 7.06886 11.7298 7.13174 11.7882 7.20865L14.2507 10.5594V7.58418C14.2507 7.23763 14.5327 6.95025 14.8807 6.95025C15.2252 6.95025 15.5108 7.23763 15.5108 7.58418V12.3851C15.5104 12.5181 15.4685 12.6476 15.391 12.7553C15.3135 12.863 15.2042 12.9434 15.0788 12.9852ZM9.13846 13.0178C8.97208 13.0169 8.81281 12.9499 8.69528 12.8314C8.57775 12.7129 8.51146 12.5525 8.51083 12.3851V7.58418C8.51083 7.23763 8.79284 6.95025 9.14086 6.95025C9.48767 6.95025 9.76969 7.23763 9.76969 7.58418V12.3851C9.76874 12.553 9.70185 12.7138 9.58361 12.8323C9.46537 12.9508 9.30536 13.0175 9.13846 13.0178ZM7.30237 13.0178H4.91785C4.75125 13.0169 4.59173 12.95 4.47381 12.8315C4.35589 12.7131 4.28907 12.5527 4.28781 12.3851V7.58418C4.28781 7.23763 4.57343 6.95025 4.91785 6.95025C5.26586 6.95025 5.54788 7.23763 5.54788 7.58418V11.7512H7.30477C7.47186 11.7512 7.63211 11.818 7.75027 11.9369C7.86842 12.0557 7.9348 12.217 7.9348 12.3851C7.9348 12.5532 7.86842 12.7145 7.75027 12.8334C7.63211 12.9523 7.47186 13.019 7.30477 13.019L7.30237 13.0178ZM12.0006 0.00120739C5.38467 0.00120739 0 4.40005 0 9.80473C0 14.6455 4.26981 18.7014 10.0361 19.4718C10.4261 19.5551 10.9589 19.7314 11.0934 20.0659C11.2134 20.3678 11.1726 20.8363 11.1318 21.1526L10.9673 22.179C10.9229 22.4808 10.7273 23.372 12.0162 22.8274C13.3075 22.2852 18.9333 18.7244 21.4535 15.8095C23.1768 13.909 24 11.9613 24 9.80352C24 4.39885 18.6141 0 11.9994 0L12.0006 0.00120739Z" fill="#5AC363"/>
</svg>
