<svg width="136" height="136" viewBox="0 0 136 136" fill="none" xmlns="http://www.w3.org/2000/svg">
    <circle opacity="0.05" cx="68" cy="68" r="68" fill="#FF9559"/>
    <circle opacity="0.1" cx="67.5" cy="68.5" r="47.5" fill="#FF9559"/>
    <path d="M67.5 80.8095C68.7266 80.8095 69.903 80.3379 70.7704 79.4985C71.6377 78.659 72.125 77.5205 72.125 76.3333C72.125 75.1462 71.6377 74.0076 70.7704 73.1682C69.903 72.3287 68.7266 71.8571 67.5 71.8571C66.2734 71.8571 65.097 72.3287 64.2296 73.1682C63.3623 74.0076 62.875 75.1462 62.875 76.3333C62.875 77.5205 63.3623 78.659 64.2296 79.4985C65.097 80.3379 66.2734 80.8095 67.5 80.8095ZM81.375 60.6667C82.6016 60.6667 83.778 61.1383 84.6454 61.9777C85.5127 62.8172 86 63.9557 86 65.1429V87.5238C86 88.711 85.5127 89.8495 84.6454 90.689C83.778 91.5284 82.6016 92 81.375 92H53.625C52.3984 92 51.222 91.5284 50.3546 90.689C49.4873 89.8495 49 88.711 49 87.5238V65.1429C49 63.9557 49.4873 62.8172 50.3546 61.9777C51.222 61.1383 52.3984 60.6667 53.625 60.6667H55.9375V56.1905C55.9375 53.2226 57.1557 50.3762 59.3241 48.2776C61.4925 46.179 64.4334 45 67.5 45C69.0184 45 70.5219 45.2895 71.9248 45.8518C73.3276 46.4142 74.6022 47.2385 75.6759 48.2776C76.7496 49.3167 77.6013 50.5504 78.1824 51.9081C78.7634 53.2658 79.0625 54.7209 79.0625 56.1905V60.6667H81.375ZM67.5 49.4762C65.6601 49.4762 63.8955 50.1836 62.5944 51.4428C61.2934 52.7019 60.5625 54.4097 60.5625 56.1905V60.6667H74.4375V56.1905C74.4375 54.4097 73.7066 52.7019 72.4056 51.4428C71.1045 50.1836 69.3399 49.4762 67.5 49.4762Z" fill="#FF9559"/>
</svg>
