<svg width="83" height="83" viewBox="0 0 83 83" fill="none" xmlns="http://www.w3.org/2000/svg">
    <rect opacity="0.2" width="83" height="83" rx="18" fill="#8AE0CB"/>
    <path d="M20.1351 37.4834C20.1351 29.9681 25.3895 23 32.5833 23C37.5758 23 41.2808 26.1264 43.5676 30.5613C45.8543 26.1264 49.5594 23 54.5519 23C61.747 23 67 29.9694 67 37.4834C67 53.5655 43.5676 65 43.5676 65C43.5676 65 27.7838 57.7642 22.1241 45.8953H36.1036L38.3256 42.1349L40.9211 50.7843L46.9997 43.3438H54.5946V40.7188H45.6489L42.0789 45.0894L39.1609 35.3651L34.4909 43.2703H21.0724C21.3646 44.1693 21.7189 45.0448 22.1241 45.8953H16V43.2703H21.0724C20.4549 41.397 20.1389 39.4455 20.1351 37.4821V37.4834Z" fill="#8AE0CB"/>
</svg>
