<svg width="8" height="10" viewBox="0 0 8 10" fill="none" xmlns="http://www.w3.org/2000/svg">
    <path d="M4 5.09554C4.275 5.09554 4.5105 4.99567 4.7065 4.79592C4.90217 4.59652 5 4.35669 5 4.07643C5 3.79618 4.90217 3.55618 4.7065 3.35643C4.5105 3.15703 4.275 3.05732 4 3.05732C3.725 3.05732 3.48967 3.15703 3.294 3.35643C3.098 3.55618 3 3.79618 3 4.07643C3 4.35669 3.098 4.59652 3.294 4.79592C3.48967 4.99567 3.725 5.09554 4 5.09554ZM4 10C3.93333 10 3.86667 9.98726 3.8 9.96178C3.73333 9.93631 3.675 9.90234 3.625 9.85987C2.40833 8.76433 1.5 7.74743 0.9 6.80917C0.3 5.87057 0 4.99363 0 4.17834C0 2.90446 0.402167 1.8896 1.2065 1.13376C2.0105 0.377919 2.94167 0 4 0C5.05833 0 5.9895 0.377919 6.7935 1.13376C7.59783 1.8896 8 2.90446 8 4.17834C8 4.99363 7.7 5.87057 7.1 6.80917C6.5 7.74743 5.59167 8.76433 4.375 9.85987C4.325 9.90234 4.26667 9.93631 4.2 9.96178C4.13333 9.98726 4.06667 10 4 10Z" fill="#BFBFBF"/>
</svg>
