<svg width="11" height="13" viewBox="0 0 11 13" fill="none" xmlns="http://www.w3.org/2000/svg">
    <path d="M5.5 6.6242C5.87813 6.6242 6.20194 6.49437 6.47144 6.2347C6.74048 5.97547 6.875 5.66369 6.875 5.29936C6.875 4.93503 6.74048 4.62303 6.47144 4.36336C6.20194 4.10414 5.87813 3.97452 5.5 3.97452C5.12187 3.97452 4.79829 4.10414 4.52925 4.36336C4.25975 4.62303 4.125 4.93503 4.125 5.29936C4.125 5.66369 4.25975 5.97547 4.52925 6.2347C4.79829 6.49437 5.12187 6.6242 5.5 6.6242ZM5.5 13C5.40833 13 5.31667 12.9834 5.225 12.9503C5.13333 12.9172 5.05313 12.873 4.98438 12.8178C3.31146 11.3936 2.0625 10.0717 1.2375 8.85192C0.4125 7.63175 0 6.49172 0 5.43185C0 3.7758 0.552979 2.45648 1.65894 1.47389C2.76444 0.491295 4.04479 0 5.5 0C6.95521 0 8.23556 0.491295 9.34106 1.47389C10.447 2.45648 11 3.7758 11 5.43185C11 6.49172 10.5875 7.63175 9.7625 8.85192C8.9375 10.0717 7.68854 11.3936 6.01562 12.8178C5.94687 12.873 5.86667 12.9172 5.775 12.9503C5.68333 12.9834 5.59167 13 5.5 13Z" fill="#FF7D7E"/>
</svg>
