<svg width="19" height="19" viewBox="0 0 19 19" fill="none" xmlns="http://www.w3.org/2000/svg">
    <path d="M13.3 0H5.7C2.55645 0 0 2.55645 0 5.7V18.05C0 18.302 0.100089 18.5436 0.278249 18.7218C0.456408 18.8999 0.698044 19 0.95 19H13.3C16.4436 19 19 16.4436 19 13.3V5.7C19 2.55645 16.4436 0 13.3 0ZM8.55 9.975C8.55 10.3529 8.39987 10.7154 8.13263 10.9826C7.86539 11.2499 7.50293 11.4 7.125 11.4C7.0433 11.4 6.9654 11.3896 6.8875 11.3763C6.80865 11.3857 6.7317 11.4 6.65 11.4C6.27422 11.4 5.90687 11.2886 5.59442 11.0798C5.28196 10.871 5.03843 10.5743 4.89463 10.2271C4.75082 9.87992 4.7132 9.49789 4.78651 9.12933C4.85982 8.76076 5.04078 8.42222 5.3065 8.1565C5.57222 7.89078 5.91076 7.70982 6.27933 7.63651C6.64789 7.5632 7.02992 7.60082 7.3771 7.74463C7.72428 7.88843 8.02102 8.13196 8.22979 8.44442C8.43857 8.75687 8.55 9.12422 8.55 9.5C8.55 9.58075 8.53575 9.65865 8.52625 9.7375C8.5386 9.8154 8.55 9.8933 8.55 9.975ZM12.35 11.4C12.2683 11.4 12.1913 11.3857 12.1125 11.3763C12.0342 11.3909 11.9547 11.3989 11.875 11.4C11.4971 11.4 11.1346 11.2499 10.8674 10.9826C10.6001 10.7154 10.45 10.3529 10.45 9.975C10.45 9.89425 10.4614 9.8154 10.4737 9.7375C10.4642 9.65865 10.45 9.5817 10.45 9.5C10.45 9.12422 10.5614 8.75687 10.7702 8.44442C10.979 8.13196 11.2757 7.88843 11.6229 7.74463C11.9701 7.60082 12.3521 7.5632 12.7207 7.63651C13.0892 7.70982 13.4278 7.89078 13.6935 8.1565C13.9592 8.42222 14.1402 8.76076 14.2135 9.12933C14.2868 9.49789 14.2492 9.87992 14.1054 10.2271C13.9616 10.5743 13.718 10.871 13.4056 11.0798C13.0931 11.2886 12.7258 11.4 12.35 11.4Z" fill="currentColor"/>
</svg>
