<svg width="136" height="136" viewBox="0 0 136 136" fill="none" xmlns="http://www.w3.org/2000/svg">
    <circle opacity="0.05" cx="68" cy="68" r="68" fill="#FF9559"/>
    <circle opacity="0.1" cx="67.5" cy="68.5" r="47.5" fill="#FF9559"/>
    <path d="M65 84H71C71.2667 84 71.5 83.9 71.7 83.7C71.9 83.5 72 83.2667 72 83C72 82.7333 71.9 82.5 71.7 82.3C71.5 82.1 71.2667 82 71 82H65C64.7333 82 64.5 82.1 64.3 82.3C64.1 82.5 64 82.7333 64 83C64 83.2667 64.1 83.5 64.3 83.7C64.5 83.9 64.7333 84 65 84ZM58 90C56.9 90 55.9587 89.6087 55.176 88.826C54.392 88.042 54 87.1 54 86V50C54 48.9 54.392 47.958 55.176 47.174C55.9587 46.3913 56.9 46 58 46H78C79.1 46 80.042 46.3913 80.826 47.174C81.6087 47.958 82 48.9 82 50V86C82 87.1 81.6087 88.042 80.826 88.826C80.042 89.6087 79.1 90 78 90H58ZM58 76H78V56H58V76Z" fill="#FF9559"/>
</svg>
