<svg width="106" height="106" viewBox="0 0 95 100" fill="none" xmlns="http://www.w3.org/2000/svg">
<g opacity="0.2" filter="url(#filter0_d_1506_2279)">
<circle cx="49" cy="49" r="28" fill="url(#paint0_linear_1506_2279)"/>
</g>
<path d="M55.8751 48.9701L60.638 44.2311C61.1047 43.7644 61.1047 42.9865 60.638 42.5438L55.4443 37.35C55.0015 36.8833 54.2236 36.8833 53.7569 37.35L49.018 42.1129L44.2311 37.35C44.0067 37.1274 43.7035 37.0025 43.3874 37.0025C43.0714 37.0025 42.7681 37.1274 42.5438 37.35L37.35 42.5438C36.8833 42.9865 36.8833 43.7644 37.35 44.2311L42.1129 48.9701L37.35 53.7569C36.8833 54.2236 36.8833 54.9536 37.35 55.4443L42.5438 60.638C43.0344 61.1047 43.7644 61.1047 44.2311 60.638L49.018 55.8751L53.7569 60.638C53.9963 60.8773 54.2954 60.985 54.6066 60.985C54.9177 60.985 55.2169 60.8654 55.4562 60.638L60.65 55.4443C61.1167 54.9536 61.1167 54.2236 60.65 53.7569L55.8751 48.9701ZM49.018 45.38C49.3353 45.38 49.6397 45.506 49.8642 45.7305C50.0886 45.9549 50.2147 46.2593 50.2147 46.5767C50.2147 46.8941 50.0886 47.1984 49.8642 47.4229C49.6397 47.6473 49.3353 47.7734 49.018 47.7734C48.7006 47.7734 48.3962 47.6473 48.1718 47.4229C47.9473 47.1984 47.8212 46.8941 47.8212 46.5767C47.8212 46.2593 47.9473 45.9549 48.1718 45.7305C48.3962 45.506 48.7006 45.38 49.018 45.38ZM43.3815 47.7255L39.0374 43.3934L43.3815 39.0494L47.7135 43.3815L43.3815 47.7255ZM46.6245 50.1668C46.3071 50.1668 46.0028 50.0407 45.7783 49.8163C45.5539 49.5919 45.4278 49.2875 45.4278 48.9701C45.4278 48.6527 45.5539 48.3483 45.7783 48.1239C46.0028 47.8995 46.3071 47.7734 46.6245 47.7734C46.9419 47.7734 47.2463 47.8995 47.4707 48.1239C47.6952 48.3483 47.8212 48.6527 47.8212 48.9701C47.8212 49.2875 47.6952 49.5919 47.4707 49.8163C47.2463 50.0407 46.9419 50.1668 46.6245 50.1668ZM49.018 52.5602C48.7006 52.5602 48.3962 52.4341 48.1718 52.2097C47.9473 51.9853 47.8212 51.6809 47.8212 51.3635C47.8212 51.0461 47.9473 50.7417 48.1718 50.5173C48.3962 50.2929 48.7006 50.1668 49.018 50.1668C49.3353 50.1668 49.6397 50.2929 49.8642 50.5173C50.0886 50.7417 50.2147 51.0461 50.2147 51.3635C50.2147 51.6809 50.0886 51.9853 49.8642 52.2097C49.6397 52.4341 49.3353 52.5602 49.018 52.5602ZM51.4114 47.7734C51.7288 47.7734 52.0331 47.8995 52.2576 48.1239C52.482 48.3483 52.6081 48.6527 52.6081 48.9701C52.6081 49.2875 52.482 49.5919 52.2576 49.8163C52.0331 50.0407 51.7288 50.1668 51.4114 50.1668C51.094 50.1668 50.7896 50.0407 50.5652 49.8163C50.3407 49.5919 50.2147 49.2875 50.2147 48.9701C50.2147 48.6527 50.3407 48.3483 50.5652 48.1239C50.7896 47.8995 51.094 47.7734 51.4114 47.7734ZM54.5946 58.9506L50.2506 54.6185L54.5946 50.2745L58.9267 54.6066L54.5946 58.9506Z" fill="url(#paint1_linear_1506_2279)"/>
<defs>
<filter id="filter0_d_1506_2279" x="0" y="0" width="106" height="106" filterUnits="userSpaceOnUse" color-interpolation-filters="sRGB">
<feFlood flood-opacity="0" result="BackgroundImageFix"/>
<feColorMatrix in="SourceAlpha" type="matrix" values="0 0 0 0 0 0 0 0 0 0 0 0 0 0 0 0 0 0 127 0" result="hardAlpha"/>
<feOffset dx="4" dy="4"/>
<feGaussianBlur stdDeviation="12.5"/>
<feComposite in2="hardAlpha" operator="out"/>
<feColorMatrix type="matrix" values="0 0 0 0 0 0 0 0 0 0 0 0 0 0 0 0 0 0 0.05 0"/>
<feBlend mode="normal" in2="BackgroundImageFix" result="effect1_dropShadow_1506_2279"/>
<feBlend mode="normal" in="SourceGraphic" in2="effect1_dropShadow_1506_2279" result="shape"/>
</filter>
<linearGradient id="paint0_linear_1506_2279" x1="21" y1="48.3778" x2="77" y2="48.3778" gradientUnits="userSpaceOnUse">
<stop stop-color="#5081FF"/>
<stop offset="0.0001" stop-color="#5A88FE"/>
<stop offset="1" stop-color="#6EA6FA"/>
</linearGradient>
<linearGradient id="paint1_linear_1506_2279" x1="37" y1="48.7275" x2="61" y2="48.7275" gradientUnits="userSpaceOnUse">
<stop stop-color="#5081FF"/>
<stop offset="0.0001" stop-color="#5A88FE"/>
<stop offset="1" stop-color="#6EA6FA"/>
</linearGradient>
</defs>
</svg>
