<svg width="136" height="136" viewBox="0 0 136 136" fill="none" xmlns="http://www.w3.org/2000/svg">
    <circle opacity="0.05" cx="68" cy="68" r="68" fill="#FF9559"/>
    <circle opacity="0.1" cx="67.5" cy="68.5" r="47.5" fill="#FF9559"/>
    <path d="M67.9949 86C67.7589 86 67.5325 86.0998 67.3656 86.2775C67.1988 86.4551 67.105 86.6961 67.105 86.9474V90.3592L64.3297 88.6526C64.1254 88.529 63.8835 88.4964 63.6567 88.5619C63.43 88.6275 63.2367 88.7858 63.1192 89.0025C63.0017 89.2192 62.9695 89.4765 63.0296 89.7183C63.0896 89.9602 63.2371 90.167 63.4398 90.2935L66.2151 92L63.4398 93.7059C63.2371 93.8324 63.0896 94.0392 63.0296 94.281C62.9695 94.5229 63.0017 94.7802 63.1192 94.9969C63.2367 95.2135 63.43 95.3719 63.6567 95.4374C63.8835 95.503 64.1254 95.4704 64.3297 95.3467L67.105 93.6415V97.0526C67.105 97.3039 67.1988 97.5449 67.3656 97.7225C67.5325 97.9002 67.7589 98 67.9949 98C68.2309 98 68.4573 97.9002 68.6241 97.7225C68.791 97.5449 68.8848 97.3039 68.8848 97.0526V93.6408L71.6601 95.3474C71.7613 95.4106 71.8733 95.4518 71.9896 95.4687C72.1058 95.4857 72.2241 95.4779 72.3376 95.446C72.451 95.4141 72.5574 95.3585 72.6507 95.2826C72.7439 95.2068 72.8221 95.112 72.8808 95.0038C72.9395 94.8956 72.9774 94.7761 72.9926 94.6522C73.0077 94.5283 72.9997 94.4024 72.9689 94.2819C72.9382 94.1613 72.8853 94.0484 72.8134 93.9496C72.7415 93.8509 72.652 93.7683 72.5499 93.7065L69.7747 92L72.5499 90.2941C72.7527 90.1676 72.9002 89.9608 72.9602 89.719C73.0203 89.4771 72.988 89.2198 72.8705 89.0031C72.753 88.7865 72.5598 88.6281 72.333 88.5626C72.1063 88.497 71.8643 88.5296 71.6601 88.6533L68.8848 90.3585V86.9474C68.8848 86.6961 68.791 86.4551 68.6241 86.2775C68.4573 86.0998 68.2309 86 67.9949 86Z" fill="#FF7D7E"/>
    <path d="M82.4944 86C82.2348 86 81.9858 86.0998 81.8022 86.2775C81.6186 86.4551 81.5155 86.6961 81.5155 86.9474V90.3592L78.4627 88.6526C78.238 88.529 77.9719 88.4964 77.7224 88.5619C77.4729 88.6275 77.2604 88.7858 77.1312 89.0025C77.0019 89.2192 76.9664 89.4765 77.0325 89.7183C77.0986 89.9602 77.2608 90.167 77.4838 90.2935L80.5366 92L77.4838 93.7059C77.2608 93.8324 77.0986 94.0392 77.0325 94.281C76.9664 94.5229 77.0019 94.7802 77.1312 94.9969C77.2604 95.2135 77.4729 95.3719 77.7224 95.4374C77.9719 95.503 78.238 95.4704 78.4627 95.3467L81.5155 93.6415V97.0526C81.5155 97.3039 81.6186 97.5449 81.8022 97.7225C81.9858 97.9002 82.2348 98 82.4944 98C82.754 98 83.003 97.9002 83.1866 97.7225C83.3701 97.5449 83.4733 97.3039 83.4733 97.0526V93.6408L86.5261 95.3474C86.6374 95.4106 86.7606 95.4518 86.8885 95.4687C87.0164 95.4857 87.1465 95.4779 87.2713 95.446C87.3961 95.4141 87.5132 95.3585 87.6157 95.2826C87.7183 95.2068 87.8043 95.112 87.8688 95.0038C87.9334 94.8956 87.9752 94.7761 87.9918 94.6522C88.0085 94.5283 87.9996 94.4024 87.9658 94.2819C87.932 94.1613 87.8738 94.0484 87.7948 93.9496C87.7157 93.8509 87.6172 93.7683 87.5049 93.7065L84.4521 92L87.5049 90.2941C87.7279 90.1676 87.8902 89.9608 87.9562 89.719C88.0223 89.4771 87.9869 89.2198 87.8576 89.0031C87.7284 88.7865 87.5158 88.6281 87.2663 88.5626C87.0169 88.497 86.7508 88.5296 86.5261 88.6533L83.4733 90.3585V86.9474C83.4733 86.6961 83.3701 86.4551 83.1866 86.2775C83.003 86.0998 82.754 86 82.4944 86Z" fill="#FF7D7E"/>
    <path d="M53.4944 86C53.2348 86 52.9858 86.0998 52.8022 86.2775C52.6186 86.4551 52.5155 86.6961 52.5155 86.9474V90.3592L49.4627 88.6526C49.238 88.529 48.9719 88.4964 48.7224 88.5619C48.4729 88.6275 48.2604 88.7858 48.1312 89.0025C48.0019 89.2192 47.9664 89.4765 48.0325 89.7183C48.0986 89.9602 48.2608 90.167 48.4838 90.2935L51.5366 92L48.4838 93.7059C48.2608 93.8324 48.0986 94.0392 48.0325 94.281C47.9664 94.5229 48.0019 94.7802 48.1312 94.9969C48.2604 95.2135 48.4729 95.3719 48.7224 95.4374C48.9719 95.503 49.238 95.4704 49.4627 95.3467L52.5155 93.6415V97.0526C52.5155 97.3039 52.6186 97.5449 52.8022 97.7225C52.9858 97.9002 53.2348 98 53.4944 98C53.754 98 54.003 97.9002 54.1866 97.7225C54.3701 97.5449 54.4733 97.3039 54.4733 97.0526V93.6408L57.5261 95.3474C57.6374 95.4106 57.7606 95.4518 57.8885 95.4687C58.0164 95.4857 58.1465 95.4779 58.2713 95.446C58.3961 95.4141 58.5132 95.3585 58.6157 95.2826C58.7183 95.2068 58.8043 95.112 58.8688 95.0038C58.9334 94.8956 58.9752 94.7761 58.9918 94.6522C59.0085 94.5283 58.9996 94.4024 58.9658 94.2819C58.932 94.1613 58.8738 94.0484 58.7948 93.9496C58.7157 93.8509 58.6172 93.7683 58.5049 93.7065L55.4521 92L58.5049 90.2941C58.7279 90.1676 58.8902 89.9608 58.9562 89.719C59.0223 89.4771 58.9869 89.2198 58.8576 89.0031C58.7284 88.7865 58.5158 88.6281 58.2663 88.5626C58.0169 88.497 57.7508 88.5296 57.5261 88.6533L54.4733 90.3585V86.9474C54.4733 86.6961 54.3701 86.4551 54.1866 86.2775C54.003 86.0998 53.754 86 53.4944 86Z" fill="#FF7D7E"/>
    <path d="M68 70.7619C69.1272 70.7619 70.2082 70.3304 71.0052 69.5624C71.8022 68.7944 72.25 67.7528 72.25 66.6667C72.25 65.5805 71.8022 64.5389 71.0052 63.7709C70.2082 63.0029 69.1272 62.5714 68 62.5714C66.8728 62.5714 65.7918 63.0029 64.9948 63.7709C64.1978 64.5389 63.75 65.5805 63.75 66.6667C63.75 67.7528 64.1978 68.7944 64.9948 69.5624C65.7918 70.3304 66.8728 70.7619 68 70.7619ZM80.75 52.3333C81.8772 52.3333 82.9582 52.7648 83.7552 53.5328C84.5522 54.3008 85 55.3424 85 56.4286V76.9048C85 77.9909 84.5522 79.0325 83.7552 79.8005C82.9582 80.5685 81.8772 81 80.75 81H55.25C54.1228 81 53.0418 80.5685 52.2448 79.8005C51.4478 79.0325 51 77.9909 51 76.9048V56.4286C51 55.3424 51.4478 54.3008 52.2448 53.5328C53.0418 52.7648 54.1228 52.3333 55.25 52.3333H57.375V48.2381C57.375 45.5228 58.4944 42.9187 60.487 40.9987C62.4796 39.0787 65.1821 38 68 38C69.3953 38 70.7769 38.2648 72.066 38.7793C73.3551 39.2938 74.5264 40.048 75.513 40.9987C76.4996 41.9494 77.2823 43.078 77.8162 44.3201C78.3502 45.5623 78.625 46.8936 78.625 48.2381V52.3333H80.75ZM68 42.0952C66.3092 42.0952 64.6877 42.7424 63.4922 43.8944C62.2966 45.0464 61.625 46.6089 61.625 48.2381V52.3333H74.375V48.2381C74.375 46.6089 73.7034 45.0464 72.5078 43.8944C71.3123 42.7424 69.6908 42.0952 68 42.0952Z" fill="#FF9559"/>
</svg>
