<svg width="29" height="35" viewBox="0 0 29 35" fill="none" xmlns="http://www.w3.org/2000/svg">
    <path d="M9.0625 17.5H19.9375C20.451 17.5 20.8818 17.332 21.2298 16.996C21.5766 16.6612 21.75 16.2458 21.75 15.75C21.75 15.2542 21.5766 14.8382 21.2298 14.5022C20.8818 14.1674 20.451 14 19.9375 14H9.0625C8.54896 14 8.11879 14.1674 7.772 14.5022C7.424 14.8382 7.25 15.2542 7.25 15.75C7.25 16.2458 7.424 16.6612 7.772 16.996C8.11879 17.332 8.54896 17.5 9.0625 17.5ZM9.0625 10.5H19.9375C20.451 10.5 20.8818 10.3326 21.2298 9.99775C21.5766 9.66175 21.75 9.24583 21.75 8.75C21.75 8.25417 21.5766 7.83825 21.2298 7.50225C20.8818 7.16742 20.451 7 19.9375 7H9.0625C8.54896 7 8.11879 7.16742 7.772 7.50225C7.424 7.83825 7.25 8.25417 7.25 8.75C7.25 9.24583 7.424 9.66175 7.772 9.99775C8.11879 10.3326 8.54896 10.5 9.0625 10.5ZM28.9094 32.3312L21.5687 23.1C21.0552 22.4292 20.4208 21.9112 19.6656 21.546C18.9104 21.182 18.0948 21 17.2188 21H0V3.5C0 2.5375 0.35525 1.71325 1.06575 1.02725C1.77504 0.342416 2.62812 0 3.625 0H25.375C26.3719 0 27.2256 0.342416 27.9361 1.02725C28.6454 1.71325 29 2.5375 29 3.5V31.5C29 31.6458 28.9928 31.7847 28.9783 31.9165C28.9625 32.0472 28.9396 32.1854 28.9094 32.3312ZM3.625 35C2.62812 35 1.77504 34.6576 1.06575 33.9728C0.35525 33.2868 0 32.4625 0 31.5V24.5H17.2188C17.5208 24.5 17.8006 24.5659 18.0579 24.6978C18.3141 24.8284 18.5328 25.0104 18.7141 25.2437L26.3266 34.8687C26.1755 34.9271 26.0172 34.9638 25.8517 34.979C25.6849 34.993 25.526 35 25.375 35H3.625Z" fill="url(#paint0_linear_64_860)"/>
    <defs>
        <linearGradient id="paint0_linear_64_860" x1="0" y1="17.1111" x2="29" y2="17.1111" gradientUnits="userSpaceOnUse">
            <stop stop-color="#5081FF"/>
            <stop offset="0.0001" stop-color="#5A88FE"/>
            <stop offset="1" stop-color="#6EA6FA"/>
        </linearGradient>
    </defs>
</svg>
