<svg width="50" height="50" viewBox="0 0 50 50" fill="none" xmlns="http://www.w3.org/2000/svg">
<path d="M11.25 19.375C11.25 18.8777 11.4475 18.4008 11.7992 18.0492C12.1508 17.6975 12.6277 17.5 13.125 17.5C13.6223 17.5 14.0992 17.6975 14.4508 18.0492C14.8025 18.4008 15 18.8777 15 19.375C15 19.8723 14.8025 20.3492 14.4508 20.7008C14.0992 21.0525 13.6223 21.25 13.125 21.25C12.6277 21.25 12.1508 21.0525 11.7992 20.7008C11.4475 20.3492 11.25 19.8723 11.25 19.375ZM13.125 31.25C12.6277 31.25 12.1508 31.4475 11.7992 31.7992C11.4475 32.1508 11.25 32.6277 11.25 33.125C11.25 33.6223 11.4475 34.0992 11.7992 34.4508C12.1508 34.8025 12.6277 35 13.125 35C13.6223 35 14.0992 34.8025 14.4508 34.4508C14.8025 34.0992 15 33.6223 15 33.125C15 32.6277 14.8025 32.1508 14.4508 31.7992C14.0992 31.4475 13.6223 31.25 13.125 31.25ZM0 8.125C0 5.97012 0.856024 3.90349 2.37976 2.37976C3.90349 0.856024 5.97012 0 8.125 0H36.875C39.0299 0 41.0965 0.856024 42.6202 2.37976C44.144 3.90349 45 5.97012 45 8.125V22.555C42.7121 21.0884 40.0913 20.2225 37.38 20.0375C37.4878 19.7537 37.525 19.4479 37.4884 19.1465C37.4517 18.8451 37.3423 18.5571 37.1696 18.3074C36.9969 18.0576 36.766 17.8537 36.497 17.713C36.2279 17.5724 35.9286 17.4993 35.625 17.5H24.375C23.8777 17.5 23.4008 17.6975 23.0492 18.0492C22.6975 18.4008 22.5 18.8777 22.5 19.375C22.5 19.8723 22.6975 20.3492 23.0492 20.7008C23.4008 21.0525 23.8777 21.25 24.375 21.25H29.99C27.8018 22.1638 25.8401 23.5452 24.2423 25.2975C22.6446 27.0498 21.4496 29.1304 20.7412 31.3934C20.0327 33.6564 19.828 36.047 20.1413 38.3976C20.4547 40.7481 21.2785 43.0016 22.555 45H8.125C5.97012 45 3.90349 44.144 2.37976 42.6202C0.856024 41.0965 0 39.0299 0 36.875V8.125ZM7.5 19.375C7.5 20.1137 7.64549 20.8451 7.92818 21.5276C8.21086 22.2101 8.6252 22.8301 9.14752 23.3525C9.66985 23.8748 10.2899 24.2891 10.9724 24.5718C11.6549 24.8545 12.3863 25 13.125 25C13.8637 25 14.5951 24.8545 15.2776 24.5718C15.9601 24.2891 16.5801 23.8748 17.1025 23.3525C17.6248 22.8301 18.0391 22.2101 18.3218 21.5276C18.6045 20.8451 18.75 20.1137 18.75 19.375C18.75 17.8832 18.1574 16.4524 17.1025 15.3975C16.0476 14.3426 14.6168 13.75 13.125 13.75C11.6332 13.75 10.2024 14.3426 9.14752 15.3975C8.09263 16.4524 7.5 17.8832 7.5 19.375ZM13.125 27.5C11.6332 27.5 10.2024 28.0926 9.14752 29.1475C8.09263 30.2024 7.5 31.6332 7.5 33.125C7.5 34.6168 8.09263 36.0476 9.14752 37.1025C10.2024 38.1574 11.6332 38.75 13.125 38.75C14.6168 38.75 16.0476 38.1574 17.1025 37.1025C18.1574 36.0476 18.75 34.6168 18.75 33.125C18.75 31.6332 18.1574 30.2024 17.1025 29.1475C16.0476 28.0926 14.6168 27.5 13.125 27.5ZM7.5 8.125C7.5 9.16 8.34 10 9.375 10H35.625C36.1223 10 36.5992 9.80246 36.9508 9.45083C37.3025 9.09919 37.5 8.62228 37.5 8.125C37.5 7.62772 37.3025 7.15081 36.9508 6.79917C36.5992 6.44754 36.1223 6.25 35.625 6.25H9.375C8.87772 6.25 8.40081 6.44754 8.04917 6.79917C7.69754 7.15081 7.5 7.62772 7.5 8.125ZM50 36.25C50 32.6033 48.5513 29.1059 45.9727 26.5273C43.3941 23.9487 39.8967 22.5 36.25 22.5C32.6033 22.5 29.1059 23.9487 26.5273 26.5273C23.9487 29.1059 22.5 32.6033 22.5 36.25C22.5 39.8967 23.9487 43.3941 26.5273 45.9727C29.1059 48.5513 32.6033 50 36.25 50C39.8967 50 43.3941 48.5513 45.9727 45.9727C48.5513 43.3941 50 39.8967 50 36.25ZM37.5 37.5L37.5025 43.7575C37.5025 44.089 37.3708 44.407 37.1364 44.6414C36.902 44.8758 36.584 45.0075 36.2525 45.0075C35.921 45.0075 35.603 44.8758 35.3686 44.6414C35.1342 44.407 35.0025 44.089 35.0025 43.7575V37.5H28.74C28.4085 37.5 28.0905 37.3683 27.8561 37.1339C27.6217 36.8995 27.49 36.5815 27.49 36.25C27.49 35.9185 27.6217 35.6005 27.8561 35.3661C28.0905 35.1317 28.4085 35 28.74 35H35V28.75C35 28.4185 35.1317 28.1005 35.3661 27.8661C35.6005 27.6317 35.9185 27.5 36.25 27.5C36.5815 27.5 36.8995 27.6317 37.1339 27.8661C37.3683 28.1005 37.5 28.4185 37.5 28.75V35H43.7425C44.074 35 44.392 35.1317 44.6264 35.3661C44.8608 35.6005 44.9925 35.9185 44.9925 36.25C44.9925 36.5815 44.8608 36.8995 44.6264 37.1339C44.392 37.3683 44.074 37.5 43.7425 37.5H37.5Z" fill="white"/>
</svg>
