<svg width="16" height="18" viewBox="0 0 16 18" fill="none" xmlns="http://www.w3.org/2000/svg">
    <path d="M2.66978 2.57069H1.99933C1.46908 2.57069 0.960539 2.77382 0.585591 3.1354C0.210644 3.49697 0 3.98737 0 4.49871V5.78406C0 7.39332 1.22892 8.72494 2.82839 8.96015C3.0899 9.96533 3.65999 10.871 4.46407 11.5585C5.26814 12.2461 6.26873 12.6835 7.33489 12.8136V14.1388H5.33556C4.62855 14.1388 3.9505 14.4097 3.45057 14.8918C2.95063 15.3739 2.66978 16.0277 2.66978 16.7095V17.3573C2.66978 17.5278 2.73999 17.6912 2.86497 17.8118C2.98996 17.9323 3.15947 18 3.33622 18H12.6664C12.8432 18 13.0127 17.9323 13.1377 17.8118C13.2627 17.6912 13.3329 17.5278 13.3329 17.3573V16.7095C13.3329 16.0277 13.052 15.3739 12.5521 14.8918C12.0522 14.4097 11.3741 14.1388 10.6671 14.1388H8.66778V12.8149C9.73428 12.6846 10.7351 12.2468 11.5392 11.5588C12.3433 10.8707 12.9132 9.96452 13.1743 8.95887C13.9607 8.84198 14.6778 8.45768 15.196 7.87543C15.7143 7.29318 15.9994 6.55137 16 5.78406V4.49871C16 3.98737 15.7894 3.49697 15.4144 3.1354C15.0395 2.77382 14.5309 2.57069 14.0007 2.57069H13.3342C13.3342 1.8889 13.0534 1.23504 12.5534 0.752939C12.0535 0.27084 11.3755 0 10.6684 0H5.33689C4.62988 0 3.95183 0.27084 3.4519 0.752939C2.95197 1.23504 2.67111 1.8889 2.67111 2.57069H2.66978ZM13.3329 3.85604H13.9993C14.1761 3.85604 14.3456 3.92375 14.4706 4.04428C14.5956 4.1648 14.6658 4.32827 14.6658 4.49871V5.78406C14.6657 6.18272 14.5375 6.57156 14.2988 6.89704C14.0601 7.22253 13.7226 7.46866 13.3329 7.60154V3.85604ZM2.66978 3.85604V7.60283C2.27927 7.47019 1.94102 7.22406 1.70159 6.89833C1.46217 6.57261 1.33335 6.18332 1.33289 5.78406V4.49871C1.33289 4.32827 1.4031 4.1648 1.52809 4.04428C1.65307 3.92375 1.82258 3.85604 1.99933 3.85604H2.67111H2.66978Z" fill="currentColor"/>
</svg>
