<svg width="22" height="20" viewBox="0 0 22 20" fill="none" xmlns="http://www.w3.org/2000/svg">
    <path d="M1 13V7C1 5.4087 1.63214 3.88258 2.75736 2.75736C3.88258 1.63214 5.4087 1 7 1H15C16.5913 1 18.1174 1.63214 19.2426 2.75736C20.3679 3.88258 21 5.4087 21 7V13C21 14.5913 20.3679 16.1174 19.2426 17.2426C18.1174 18.3679 16.5913 19 15 19H7C5.4087 19 3.88258 18.3679 2.75736 17.2426C1.63214 16.1174 1 14.5913 1 13V13Z" stroke="#59D1A6" stroke-width="1.5"/>
    <path d="M11 12.76L11.01 12.749M6 9.25C8.5 6.25 13.5 6.25 16 9.25M8 11.25C9.5 9.25 12.5 9.25 14 11.25" stroke="#59D1A6" stroke-width="1.5" stroke-linecap="round" stroke-linejoin="round"/>
</svg>
