<svg width="14" height="16" viewBox="0 0 14 16" fill="none" xmlns="http://www.w3.org/2000/svg">
<path d="M10.3763 5.73492C11.3978 6.46784 12.6492 6.89908 14.0007 6.89908V4.28868C13.7449 4.28874 13.4898 4.26194 13.2395 4.20872V6.26348C11.8881 6.26348 10.6369 5.83229 9.61518 5.09943V10.4266C9.61518 13.0915 7.46283 15.2516 4.808 15.2516C3.81741 15.2516 2.89666 14.9511 2.13184 14.4355C3.00479 15.3314 4.22217 15.8872 5.56895 15.8872C8.224 15.8872 10.3764 13.727 10.3764 11.062V5.73492H10.3763ZM11.3153 3.10134C10.7932 2.5289 10.4505 1.78912 10.3763 0.971231V0.635498H9.655C9.83657 1.67499 10.4559 2.56306 11.3153 3.10134ZM3.81101 12.3906C3.51935 12.0068 3.36169 11.5372 3.3624 11.0544C3.3624 9.83555 4.34686 8.8473 5.56145 8.8473C5.78777 8.84718 6.01275 8.88206 6.2285 8.95071V6.28193C5.97638 6.24728 5.72197 6.2325 5.46766 6.23794V8.31517C5.25182 8.24646 5.02671 8.2116 4.80029 8.21181C3.58575 8.21181 2.60134 9.19995 2.60134 10.4189C2.60134 11.2808 3.09338 12.0271 3.81101 12.3906Z" fill="#FF004F"/>
<path d="M9.61416 5.09937C10.6359 5.83224 11.887 6.26342 13.2385 6.26342V4.20866C12.4841 4.04736 11.8163 3.65171 11.3142 3.10134C10.4548 2.56301 9.83555 1.67493 9.65398 0.635498H7.75938V11.0619C7.75506 12.2774 6.77229 13.2616 5.56032 13.2616C4.84619 13.2616 4.21169 12.9199 3.80989 12.3905C3.09236 12.0271 2.60027 11.2808 2.60027 10.419C2.60027 9.20011 3.58468 8.21186 4.79921 8.21186C5.03192 8.21186 5.2562 8.24822 5.46659 8.31522V6.238C2.85835 6.29209 0.760742 8.43116 0.760742 11.0619C0.760742 12.3752 1.28308 13.5657 2.13087 14.4356C2.8957 14.9511 3.81639 15.2518 4.80703 15.2518C7.46192 15.2518 9.61422 13.0914 9.61422 10.4266V5.09943L9.61416 5.09937Z" fill="black"/>
<path d="M13.2389 4.2086V3.65313C12.5586 3.65417 11.8918 3.46295 11.3146 3.10134C11.8255 3.66275 12.4983 4.0499 13.2389 4.20871V4.2086ZM9.65429 0.635437C9.63698 0.536118 9.6237 0.436134 9.61448 0.335733V0H6.99847V10.4265C6.99432 11.6419 6.01155 12.6261 4.79953 12.6261C4.45593 12.6266 4.11703 12.5459 3.8102 12.3906C4.212 12.9199 4.84651 13.2615 5.56064 13.2615C6.77255 13.2615 7.75542 12.2774 7.75969 11.0619V0.635492H9.65429V0.635437ZM5.46706 6.23794V5.64649C5.24847 5.61648 5.02809 5.60147 4.80746 5.60156C2.15229 5.60156 0 7.76183 0 10.4265C0 12.0971 0.845878 13.5695 2.13129 14.4355C1.2835 13.5657 0.761165 12.3751 0.761165 11.0619C0.761165 8.43115 2.85872 6.29203 5.46706 6.23794Z" fill="#00F2EA"/>
</svg>
