<svg width="18" height="18" viewBox="0 0 18 18" fill="none" xmlns="http://www.w3.org/2000/svg">
<path d="M14.9965 7.44247C14.9966 7.56772 14.9469 7.68787 14.8585 7.7766C14.7701 7.86533 14.6502 7.91542 14.5249 7.9159H13.2082V8.75924H14.5249C14.6502 8.75924 14.7704 8.80902 14.8591 8.89764C14.9477 8.98625 14.9974 9.10644 14.9974 9.23176C14.9974 9.35708 14.9477 9.47727 14.8591 9.56589C14.7704 9.6545 14.6502 9.70428 14.5249 9.70428H12.7347C12.61 9.70334 12.4906 9.65316 12.4026 9.56468C12.3146 9.47619 12.2651 9.35654 12.2649 9.23176V5.65318C12.2649 5.39487 12.4764 5.18066 12.7374 5.18066H14.5267C14.647 5.18831 14.7598 5.24154 14.8422 5.3295C14.9246 5.41746 14.9703 5.53352 14.9701 5.65403C14.9699 5.77454 14.9237 5.89043 14.841 5.97807C14.7582 6.06571 14.6452 6.11851 14.5249 6.12571H13.2082V6.96995H14.5249C14.7859 6.96995 14.9965 7.18236 14.9965 7.44247ZM11.3091 9.67908C11.2608 9.69465 11.2104 9.70254 11.1597 9.70249C11.0855 9.70402 11.0121 9.68774 10.9455 9.65501C10.8789 9.62228 10.8212 9.57405 10.7771 9.51438L8.94465 7.02665V9.23176C8.93565 9.35056 8.8821 9.46158 8.79473 9.54258C8.70736 9.62358 8.59262 9.66859 8.47347 9.66859C8.35433 9.66859 8.23959 9.62358 8.15222 9.54258C8.06485 9.46158 8.0113 9.35056 8.0023 9.23176V5.65318C8.00206 5.52873 8.05121 5.40927 8.13895 5.32102C8.2267 5.23277 8.34587 5.18294 8.47032 5.18246C8.54242 5.18475 8.6131 5.20307 8.67724 5.23607C8.74138 5.26907 8.79737 5.31594 8.84114 5.37327L10.688 7.87089V5.65318C10.688 5.39487 10.8995 5.18066 11.1606 5.18066C11.4189 5.18066 11.6331 5.39487 11.6331 5.65318V9.23176C11.6328 9.33089 11.6014 9.42742 11.5432 9.5077C11.4851 9.58797 11.4032 9.64793 11.3091 9.67908ZM6.85384 9.70339C6.72906 9.70267 6.60961 9.65273 6.52146 9.56441C6.43331 9.47609 6.38359 9.35654 6.38312 9.23176V5.65318C6.38312 5.39487 6.59463 5.18066 6.85564 5.18066C7.11576 5.18066 7.32727 5.39487 7.32727 5.65318V9.23176C7.32655 9.35694 7.27639 9.47675 7.18771 9.5651C7.09903 9.65344 6.97902 9.70315 6.85384 9.70339ZM5.47677 9.70339H3.68838C3.56344 9.70268 3.44379 9.65279 3.35536 9.56452C3.26692 9.47625 3.21681 9.35671 3.21586 9.23176V5.65318C3.21586 5.39487 3.43007 5.18066 3.68838 5.18066C3.9494 5.18066 4.16091 5.39487 4.16091 5.65318V8.75924H5.47857C5.6039 8.75924 5.72408 8.80902 5.8127 8.89764C5.90131 8.98625 5.9511 9.10644 5.9511 9.23176C5.9511 9.35708 5.90131 9.47727 5.8127 9.56589C5.72408 9.6545 5.6039 9.70428 5.47857 9.70428L5.47677 9.70339ZM9.00045 0.00089998C4.0385 0.00089998 0 3.27976 0 7.30837C0 10.9166 3.20236 13.9399 7.52708 14.5141C7.81959 14.5762 8.21921 14.7076 8.32001 14.9569C8.41002 15.182 8.37942 15.5312 8.34882 15.767L8.22551 16.532C8.19221 16.757 8.0455 17.4213 9.01215 17.0153C9.9806 16.6112 14.2 13.957 16.0901 11.7843C17.3826 10.3676 18 8.91584 18 7.30746C18 3.27886 13.9606 0 8.99955 0L9.00045 0.00089998Z" fill="#5AC363"/>
</svg>
