<svg width="18" height="20" viewBox="0 0 18 20" fill="none" xmlns="http://www.w3.org/2000/svg">
<path d="M17.9813 3.56815C17.9813 2.62181 17.5867 1.71424 16.8844 1.04508C16.1821 0.375927 15.2296 0 14.2364 0C13.2432 0 12.2907 0.375927 11.5884 1.04508C10.8861 1.71424 10.4916 2.62181 10.4916 3.56815C10.4931 4.01031 10.5787 4.44855 10.7443 4.8616L6.42838 7.50203C5.90876 6.99339 5.24174 6.64397 4.51259 6.49845C3.78344 6.35293 3.02532 6.41793 2.33515 6.68514C1.64498 6.95234 1.05413 7.4096 0.638161 7.99846C0.22219 8.58731 0 9.281 0 9.99081C0 10.7006 0.22219 11.3943 0.638161 11.9832C1.05413 12.572 1.64498 13.0293 2.33515 13.2965C3.02532 13.5637 3.78344 13.6287 4.51259 13.4832C5.24174 13.3377 5.90876 12.9882 6.42838 12.4796L10.7443 15.12C10.5787 15.5331 10.4931 15.9713 10.4916 16.4135C10.4893 17.2433 10.7899 18.0481 11.3419 18.69C11.8939 19.3319 12.6629 19.771 13.5173 19.932C14.3717 20.093 15.2583 19.966 16.0252 19.5726C16.7921 19.1793 17.3916 18.5441 17.7211 17.7759C18.0505 17.0077 18.0894 16.1543 17.831 15.3618C17.5726 14.5693 17.0331 13.887 16.3048 13.4319C15.5766 12.9767 14.7049 12.777 13.839 12.8669C12.9732 12.9568 12.1671 13.3308 11.5588 13.9247L7.24289 11.2843C7.57979 10.4518 7.57979 9.52979 7.24289 8.69736L11.5588 6.05693C12.0788 6.5636 12.7453 6.91129 13.4734 7.05566C14.2016 7.20004 14.9583 7.13457 15.6473 6.8676C16.3362 6.60063 16.9261 6.14425 17.3418 5.55664C17.7575 4.96902 17.9801 4.27678 17.9813 3.56815Z" fill="url(#paint0_linear_1281_2186)"/>
<defs>
<linearGradient id="paint0_linear_1281_2186" x1="0" y1="10.2222" x2="18" y2="10.2222" gradientUnits="userSpaceOnUse">
<stop stop-color="#ffffff"/>
<stop offset="0.0001" stop-color="#ffffff"/>
<stop offset="1" stop-color="#ffffff"/>
</linearGradient>
</defs>
</svg>
