<svg width="50" height="50" viewBox="0 0 50 50" fill="none" xmlns="http://www.w3.org/2000/svg">
<path d="M44.4444 41.597V41.2192C47.7056 39.8581 50 36.6387 50 32.8859V9.02773C50 6.63343 49.0489 4.33719 47.3558 2.64416C45.6628 0.951133 43.3665 0 40.9722 0H17.3611C15.4523 3.33154e-05 13.5925 0.604924 12.0489 1.72782C10.5053 2.85072 9.35719 4.43387 8.76944 6.24997H8.21111C5.67778 6.24997 3.52222 7.14163 2.03889 8.89996C0.6 10.6027 0 12.8722 0 15.2777V39.5831C0 42.5276 1.06389 45.1776 3.08333 47.0831C5.1 48.9803 7.89722 49.9859 11.1111 49.9859H22L33.3222 49.9997H33.3278C36.0389 50.0136 38.725 49.4442 40.8083 48.1109C42.975 46.722 44.4444 44.5137 44.4444 41.597ZM8.21111 10.4166H8.33333V32.8832C8.33333 35.2775 9.28447 37.5737 10.9775 39.2667C12.6705 40.9598 14.9668 41.9109 17.3611 41.9109H40.2667C40.1778 43.072 39.5944 43.9387 38.5611 44.5998C37.3583 45.372 35.5333 45.8442 33.3444 45.8331H33.3333L21.9944 45.8192H11.1111C8.76944 45.8192 7.05555 45.097 5.94444 44.0498C4.83889 43.0109 4.16667 41.4998 4.16667 39.5831V15.2777C4.16667 13.5138 4.61111 12.3138 5.22222 11.5861C5.79167 10.9138 6.7 10.4166 8.21111 10.4166ZM25.0611 9.72217H38.1944C38.747 9.72217 39.2769 9.94167 39.6676 10.3324C40.0583 10.7231 40.2778 11.253 40.2778 11.8055V24.9415C40.2778 25.4941 40.0583 26.024 39.6676 26.4147C39.2769 26.8054 38.747 27.0249 38.1944 27.0249C37.6419 27.0249 37.112 26.8054 36.7213 26.4147C36.3306 26.024 36.1111 25.4941 36.1111 24.9415V16.8333L21.6111 31.3332C21.4188 31.5321 21.1889 31.6907 20.9347 31.7997C20.6804 31.9088 20.407 31.9661 20.1304 31.9684C19.8538 31.9707 19.5795 31.9178 19.3235 31.813C19.0675 31.7081 18.835 31.5533 18.6395 31.3576C18.4439 31.1619 18.2894 30.9292 18.1847 30.6731C18.0801 30.417 18.0275 30.1427 18.03 29.8661C18.0326 29.5895 18.0902 29.3161 18.1995 29.062C18.3088 28.8079 18.4676 28.5781 18.6667 28.386L33.1667 13.8888H25.0611C24.5086 13.8888 23.9787 13.6693 23.588 13.2786C23.1973 12.8879 22.9778 12.358 22.9778 11.8055C22.9778 11.253 23.1973 10.7231 23.588 10.3324C23.9787 9.94167 24.5086 9.72217 25.0611 9.72217Z" fill="white"/>
</svg>
