<svg width="35" height="35" viewBox="0 0 35 35" fill="none" xmlns="http://www.w3.org/2000/svg">
    <path d="M9.72222 27.2222C10.2731 27.2222 10.7353 27.0356 11.1086 26.6622C11.4806 26.2902 11.6667 25.8287 11.6667 25.2778V15.5556C11.6667 15.0046 11.4806 14.5425 11.1086 14.1692C10.7353 13.7971 10.2731 13.6111 9.72222 13.6111C9.1713 13.6111 8.70917 13.7971 8.33583 14.1692C7.9638 14.5425 7.77778 15.0046 7.77778 15.5556V25.2778C7.77778 25.8287 7.9638 26.2902 8.33583 26.6622C8.70917 27.0356 9.1713 27.2222 9.72222 27.2222ZM17.5 27.2222C18.0509 27.2222 18.5131 27.0356 18.8864 26.6622C19.2584 26.2902 19.4444 25.8287 19.4444 25.2778V9.72222C19.4444 9.1713 19.2584 8.70917 18.8864 8.33583C18.5131 7.9638 18.0509 7.77778 17.5 7.77778C16.9491 7.77778 16.4876 7.9638 16.1156 8.33583C15.7422 8.70917 15.5556 9.1713 15.5556 9.72222V25.2778C15.5556 25.8287 15.7422 26.2902 16.1156 26.6622C16.4876 27.0356 16.9491 27.2222 17.5 27.2222ZM25.2778 27.2222C25.8287 27.2222 26.2902 27.0356 26.6622 26.6622C27.0356 26.2902 27.2222 25.8287 27.2222 25.2778V21.3889C27.2222 20.838 27.0356 20.3758 26.6622 20.0025C26.2902 19.6305 25.8287 19.4444 25.2778 19.4444C24.7269 19.4444 24.2654 19.6305 23.8933 20.0025C23.52 20.3758 23.3333 20.838 23.3333 21.3889V25.2778C23.3333 25.8287 23.52 26.2902 23.8933 26.6622C24.2654 27.0356 24.7269 27.2222 25.2778 27.2222ZM3.88889 35C2.81944 35 1.90361 34.6195 1.14139 33.8586C0.380463 33.0964 0 32.1806 0 31.1111V3.88889C0 2.81944 0.380463 1.90361 1.14139 1.14139C1.90361 0.380463 2.81944 0 3.88889 0H31.1111C32.1806 0 33.0964 0.380463 33.8586 1.14139C34.6195 1.90361 35 2.81944 35 3.88889V31.1111C35 32.1806 34.6195 33.0964 33.8586 33.8586C33.0964 34.6195 32.1806 35 31.1111 35H3.88889Z" fill="url(#paint0_linear_64_741)"/>
    <defs>
        <linearGradient id="paint0_linear_64_741" x1="0" y1="17.1111" x2="35" y2="17.1111" gradientUnits="userSpaceOnUse">
            <stop stop-color="#5081FF"/>
            <stop offset="0.0001" stop-color="#5A88FE"/>
            <stop offset="1" stop-color="#6EA6FA"/>
        </linearGradient>
    </defs>
</svg>
