<svg width="136" height="136" viewBox="0 0 136 136" fill="none" xmlns="http://www.w3.org/2000/svg">
<circle opacity="0.2" cx="68" cy="68" r="68" fill="#59D1A6"/>
<circle cx="67.5" cy="67.5" r="47.5" fill="#59D1A6"/>
<path d="M88.0596 46.722C89.3899 47.4558 90.3698 48.68 90.7839 50.1254C91.198 51.5707 91.0123 53.1188 90.2676 54.4293L71.3583 87.6891C70.8794 88.5317 70.2151 89.2581 69.4142 89.815C68.6133 90.3719 67.6961 90.7453 66.7297 90.9078C65.7633 91.0702 64.7722 91.0176 63.8291 90.7538C62.886 90.4901 62.0148 90.0218 61.2793 89.3833L46.9486 76.9493C45.8044 75.9563 45.1076 74.5562 45.0114 73.057C44.9153 71.5579 45.4277 70.0826 46.436 68.9556C47.4442 67.8286 48.8657 67.1423 50.3877 67.0476C51.9097 66.9529 53.4076 67.4577 54.5517 68.4507L64.3038 76.9137L80.233 48.8968C80.6019 48.2478 81.097 47.6768 81.69 47.2162C82.283 46.7557 82.9622 46.4147 83.689 46.2128C84.4158 46.0108 85.1758 45.9518 85.9257 46.0392C86.6757 46.1266 87.4008 46.3586 88.0596 46.722Z" fill="#FCFCFC"/>
</svg>
