<svg width="18" height="21" viewBox="0 0 18 21" fill="none" xmlns="http://www.w3.org/2000/svg">
<path d="M13.34 7.37284C14.6532 8.3151 16.2621 8.86951 17.9996 8.86951V5.51352C17.6708 5.51359 17.3428 5.47913 17.0211 5.41071V8.05237C15.2836 8.05237 13.675 7.49802 12.3615 6.55583V13.4045C12.3615 16.8306 9.59438 19.6078 6.18126 19.6078C4.90774 19.6078 3.72401 19.2213 2.74072 18.5585C3.86301 19.7104 5.42811 20.4248 7.15955 20.4248C10.573 20.4248 13.3401 17.6477 13.3401 14.2214V7.37284H13.34ZM14.5472 3.98705C13.876 3.2511 13.4353 2.30001 13.34 1.24852V0.816895H12.4127C12.6461 2.15329 13.4424 3.29502 14.5472 3.98705ZM4.89952 15.9295C4.52455 15.4361 4.32185 14.8323 4.32276 14.2116C4.32276 12.6447 5.58841 11.3742 7.14992 11.3742C7.44088 11.374 7.73012 11.4189 8.00749 11.5071V8.07609C7.68336 8.03154 7.35628 8.01254 7.02934 8.01953V10.6901C6.75185 10.6017 6.46245 10.5569 6.17135 10.5572C4.60991 10.5572 3.34433 11.8276 3.34433 13.3947C3.34433 14.5028 3.97691 15.4622 4.89952 15.9295Z" fill="#FF004F"/>
<path d="M12.3607 6.55576C13.6743 7.49795 15.2828 8.0523 17.0203 8.0523V5.41064C16.0504 5.20327 15.1919 4.69461 14.5463 3.98705C13.4414 3.29495 12.6453 2.15322 12.4119 0.816895H9.97613V14.2213C9.97058 15.784 8.70711 17.0493 7.14898 17.0493C6.23087 17.0493 5.41514 16.61 4.89857 15.9295C3.9761 15.4622 3.34346 14.5027 3.34346 13.3948C3.34346 11.8278 4.60903 10.5573 6.17047 10.5573C6.46964 10.5573 6.75798 10.604 7.02846 10.6901V8.0196C3.67525 8.08915 0.978516 10.8392 0.978516 14.2214C0.978516 15.9098 1.65004 17.4403 2.73999 18.5587C3.72327 19.2213 4.90694 19.6079 6.18053 19.6079C9.59372 19.6079 12.3608 16.8305 12.3608 13.4045V6.55583L12.3607 6.55576Z" fill="black"/>
<path d="M17.0203 5.41068V4.69655C16.1457 4.69788 15.2884 4.45205 14.5463 3.98716C15.2032 4.70892 16.0681 5.20665 17.0203 5.41082V5.41068ZM12.4118 0.816933C12.3895 0.689247 12.3725 0.560705 12.3606 0.431626V0H8.99741V13.4046C8.99206 14.9671 7.7286 16.2324 6.17039 16.2324C5.72865 16.2331 5.29295 16.1294 4.89849 15.9297C5.41505 16.6102 6.23079 17.0493 7.14889 17.0493C8.70696 17.0493 9.97057 15.7842 9.97605 14.2215V0.817004H12.4118V0.816933ZM7.02859 8.01964V7.25927C6.74756 7.22069 6.46423 7.20139 6.18058 7.20151C2.76704 7.20151 0 9.9788 0 13.4046C0 15.5524 1.08748 17.4452 2.74004 18.5586C1.6501 17.4404 0.978572 15.9097 0.978572 14.2214C0.978572 10.8393 3.67524 8.08919 7.02859 8.01964Z" fill="#00F2EA"/>
</svg>
