<svg width="136" height="136" viewBox="0 0 136 136" fill="none" xmlns="http://www.w3.org/2000/svg">
    <circle opacity="0.05" cx="68" cy="68" r="68" fill="#FF9559"/>
    <circle opacity="0.1" cx="67.5" cy="68.5" r="47.5" fill="#FF9559"/>
    <path d="M68 68C73.2488 68 77.5 63.7487 77.5 58.5C77.5 53.2512 73.2488 49 68 49C62.7513 49 58.5 53.2512 58.5 58.5C58.5 63.7487 62.7513 68 68 68ZM68 72.75C61.6587 72.75 49 75.9325 49 82.25V84.625C49 85.9313 50.0688 87 51.375 87H84.625C85.9313 87 87 85.9313 87 84.625V82.25C87 75.9325 74.3412 72.75 68 72.75Z" fill="#FF9559"/>
</svg>
