<svg width="38" height="39" viewBox="0 0 38 39" fill="none" xmlns="http://www.w3.org/2000/svg">
    <rect opacity="0.2" y="0.349976" width="37.8" height="37.8" rx="18" fill="url(#paint0_linear_0_1)"/>
    <path d="M13.6504 15.9688C13.6504 18.8686 16.0006 21.2188 18.9004 21.2188C21.8002 21.2188 24.1504 18.8686 24.1504 15.9688C24.1504 13.0689 21.8002 10.7188 18.9004 10.7188C16.0006 10.7188 13.6504 13.0689 13.6504 15.9688ZM13.3305 11.375C14.6553 9.77129 16.6568 8.75 18.9004 8.75C21.1439 8.75 23.1455 9.77129 24.4703 11.375H26.7754C28.2232 11.375 29.4004 12.5521 29.4004 14V27.125C29.4004 28.5729 28.2232 29.75 26.7754 29.75H11.0254C9.57754 29.75 8.40039 28.5729 8.40039 27.125V14C8.40039 12.5521 9.57754 11.375 11.0254 11.375H13.3305ZM17.2598 17.9375C17.2598 17.5027 17.4279 17.109 17.7068 16.8137L16.3287 13.6021C16.1852 13.2699 16.341 12.8844 16.6732 12.7408C17.0055 12.5973 17.391 12.7531 17.5346 13.0854L18.9127 16.2969C19.815 16.301 20.541 17.0352 20.541 17.9375C20.541 18.8439 19.8068 19.5781 18.9004 19.5781C17.9939 19.5781 17.2598 18.8439 17.2598 17.9375Z" fill="url(#paint1_linear_0_1)"/>
    <defs>
        <linearGradient id="paint0_linear_0_1" x1="0" y1="18.83" x2="37.8" y2="18.83" gradientUnits="userSpaceOnUse">
            <stop stop-color="#5081FF"/>
            <stop offset="0.0001" stop-color="#5A88FE"/>
            <stop offset="1" stop-color="#6EA6FA"/>
        </linearGradient>
        <linearGradient id="paint1_linear_0_1" x1="29.4004" y1="19.0167" x2="8.40039" y2="19.0167" gradientUnits="userSpaceOnUse">
            <stop stop-color="#5081FF"/>
            <stop offset="0.0001" stop-color="#5A88FE"/>
            <stop offset="1" stop-color="#6EA6FA"/>
        </linearGradient>
    </defs>
</svg>
