<svg width="53" height="36" viewBox="0 0 53 36" fill="none" xmlns="http://www.w3.org/2000/svg">
    <path d="M39 24.1667L39 10.8333C39 7.61167 36.3883 5 33.1667 5L19.8333 5C16.6117 5 14 7.61167 14 10.8333L14 24.1667C14 27.3883 16.6117 30 19.8333 30L33.1667 30C36.3883 30 39 27.3883 39 24.1667Z" fill="#5191F2"/>
    <path d="M44.0942 26.4566L51.1493 26.4566C51.6171 26.4566 52.0657 26.2708 52.3965 25.94C52.7273 25.6092 52.9131 25.1606 52.9131 24.6928L52.9131 10.5826C52.9131 10.1149 52.7273 9.66624 52.3965 9.33546C52.0657 9.00469 51.6171 8.81887 51.1493 8.81887L44.0942 8.81887C44.0916 6.48076 43.1616 4.23917 41.5083 2.58589C39.855 0.932596 37.6135 0.00262527 35.2754 -7.7097e-07L17.6376 -1.54194e-06C15.2995 0.00262429 13.0579 0.932595 11.4046 2.58588C9.75136 4.23917 8.82139 6.48076 8.81876 8.81886L1.76367 8.81886C1.29589 8.81886 0.847263 9.00469 0.516491 9.33546C0.185722 9.66623 -0.000103439 10.1149 -0.000103459 10.5826L-0.000104076 24.6928C-0.000104097 25.1606 0.185721 25.6092 0.51649 25.94C0.847262 26.2708 1.29589 26.4566 1.76367 26.4566L8.81876 26.4566C8.82139 28.7947 9.75136 31.0363 11.4046 32.6896C13.0579 34.3429 15.2995 35.2728 17.6376 35.2755L35.2754 35.2755C37.6135 35.2728 39.855 34.3429 41.5083 32.6896C43.1616 31.0363 44.0916 28.7947 44.0942 26.4566ZM19.4014 32.6298C17.2971 32.6275 15.2797 31.7905 13.7917 30.3025C12.3037 28.8146 11.4668 26.7971 11.4644 24.6928L11.4644 10.5826C11.4668 8.47834 12.3037 6.46089 13.7917 4.97292C15.2797 3.48496 17.2971 2.64799 19.4014 2.64566L33.5116 2.64566C35.6159 2.64799 37.6333 3.48496 39.1213 4.97292C40.6093 6.46089 41.4462 8.47834 41.4486 10.5826L41.4486 24.6928C41.4462 26.7971 40.6093 28.8146 39.1213 30.3025C37.6333 31.7905 35.6159 32.6275 33.5116 32.6298L19.4014 32.6298Z" fill="url(#paint0_linear_64_742)"/>
    <defs>
        <linearGradient id="paint0_linear_64_742" x1="27.0444" y1="-1.13076e-06" x2="27.0444" y2="35.2755" gradientUnits="userSpaceOnUse">
            <stop stop-color="#5081FF"/>
            <stop offset="0.0001" stop-color="#5A88FE"/>
            <stop offset="1" stop-color="#6EA6FA"/>
        </linearGradient>
    </defs>
</svg>
